RecursiveMono-GothicA14Italic.ufo
<glyph name="parenleft" format="1">
  <advance width="600"/>
  <unicode hex="0028"/>
  <outline>
    <contour>
      <point x="417" y="752.0" type="curve" smooth="yes"/>
      <point x="297" y="632"/>
      <point x="240" y="473.0"/>
      <point x="240" y="303.0" type="curve" smooth="yes"/>
      <point x="240" y="296.0" type="line" smooth="yes"/>
      <point x="240" y="126.0"/>
      <point x="297" y="-33"/>
      <point x="417" y="-153.0" type="curve" smooth="yes"/>
      <point x="421" y="-158.0"/>
      <point x="429" y="-161.0"/>
      <point x="437" y="-161.0" type="curve" smooth="yes"/>
      <point x="451" y="-161.0"/>
      <point x="464" y="-161.0"/>
      <point x="478" y="-161.0" type="curve"/>
      <point x="478" y="-149.0" type="line"/>
      <point x="353" y="-31"/>
      <point x="290" y="126.0"/>
      <point x="290" y="296.0" type="curve" smooth="yes"/>
      <point x="290" y="303.0" type="line" smooth="yes"/>
      <point x="290" y="473.0"/>
      <point x="353" y="630"/>
      <point x="478" y="748.0" type="curve"/>
      <point x="478" y="760.0" type="line"/>
      <point x="464" y="760.0"/>
      <point x="451" y="760.0"/>
      <point x="437" y="760.0" type="curve" smooth="yes"/>
      <point x="429" y="760.0"/>
      <point x="421" y="757.0"/>
    </contour>
  </outline>
</glyph>
<glyph name="period" format="1">
  <advance width="600"/>
  <unicode hex="002E"/>
  <outline>
    <contour>
      <point x="362" y="-5" type="curve"/>
      <point x="362" y="104" type="line" smooth="yes"/>
      <point x="362.0" y="110.0"/>
      <point x="357" y="115"/>
      <point x="351" y="115" type="curve" smooth="yes"/>
      <point x="321" y="115"/>
      <point x="268" y="115"/>
      <point x="238" y="115" type="curve"/>
      <point x="238" y="6" type="line" smooth="yes"/>
      <point x="238" y="0"/>
      <point x="243" y="-5"/>
      <point x="249" y="-5" type="curve" smooth="yes"/>
      <point x="279" y="-5"/>
      <point x="332" y="-5"/>
    </contour>
  </outline>
</glyph>
<glyph name="one" format="1">
  <advance width="600"/>
  <unicode hex="0031"/>
  <outline>
    <contour>
      <point x="360" y="10" type="curve"/>
      <point x="360.0" y="241"/>
      <point x="360" y="471"/>
      <point x="360" y="699" type="curve" smooth="yes"/>
      <point x="360.0" y="706.0"/>
      <point x="356" y="710"/>
      <point x="349" y="710" type="curve" smooth="yes"/>
      <point x="310" y="710" type="line"/>
      <point x="310.0" y="486.4240506329114"/>
      <point x="310.0" y="258.0"/>
      <point x="310" y="33" type="curve" smooth="yes"/>
      <point x="310.0" y="14.666666666666664"/>
      <point x="328.0" y="10.0"/>
    </contour>
    <contour>
      <point x="90" y="47" type="line"/>
      <point x="90.0" y="35.0"/>
      <point x="90.0" y="23.0"/>
      <point x="90" y="11" type="curve" smooth="yes"/>
      <point x="90" y="8"/>
      <point x="91" y="5"/>
      <point x="93" y="3" type="curve" smooth="yes"/>
      <point x="95" y="1"/>
      <point x="98" y="0"/>
      <point x="101" y="0" type="curve" smooth="yes"/>
      <point x="540" y="0" type="line"/>
      <point x="540.0" y="12.0"/>
      <point x="540.0" y="24.0"/>
      <point x="540" y="36" type="curve" smooth="yes"/>
      <point x="540" y="42"/>
      <point x="535" y="47"/>
      <point x="529" y="47" type="curve" smooth="yes"/>
    </contour>
    <contour>
      <point x="104" y="476.0" type="curve" smooth="yes"/>
      <point x="117.0" y="476.0"/>
      <point x="123.0" y="478.0"/>
      <point x="320" y="666" type="curve" smooth="yes"/>
      <point x="328" y="674"/>
      <point x="333.0" y="681.0"/>
      <point x="333" y="689" type="curve" smooth="yes"/>
      <point x="333.0" y="702.125"/>
      <point x="328.0" y="710.0"/>
      <point x="313" y="710" type="curve"/>
      <point x="297" y="710" type="line"/>
      <point x="264" y="679"/>
      <point x="232" y="648"/>
      <point x="199" y="617" type="curve"/>
      <point x="165" y="585"/>
      <point x="132" y="554"/>
      <point x="98" y="522" type="curve"/>
      <point x="98" y="486" type="line" smooth="yes"/>
      <point x="98.0" y="478.0"/>
      <point x="100" y="476"/>
    </contour>
  </outline>
</glyph>
<glyph name="two" format="1">
  <advance width="600"/>
  <unicode hex="0032"/>
  <outline>
    <contour>
      <point x="465" y="621" type="curve"/>
      <point x="465.0" y="580.9612590799031"/>
      <point x="465.0" y="573.0"/>
      <point x="465" y="535" type="curve" smooth="yes"/>
      <point x="465.0" y="472.0"/>
      <point x="437.0" y="440.0"/>
      <point x="296" y="345" type="curve" smooth="yes"/>
      <point x="140.0" y="239"/>
      <point x="70" y="175"/>
      <point x="70" y="40" type="curve" smooth="yes"/>
      <point x="70" y="30"/>
      <point x="75" y="27"/>
      <point x="121" y="27" type="curve"/>
      <point x="121" y="144"/>
      <point x="148" y="181"/>
      <point x="327" y="306" type="curve" smooth="yes"/>
      <point x="454" y="394"/>
      <point x="515.0" y="443.0"/>
      <point x="515" y="529" type="curve" smooth="yes"/>
      <point x="515" y="561" type="line" smooth="yes"/>
      <point x="515" y="589"/>
      <point x="503.0" y="621.0"/>
    </contour>
    <contour>
      <point x="530" y="0" type="line"/>
      <point x="530" y="12"/>
      <point x="530" y="24"/>
      <point x="530" y="36" type="curve" smooth="yes"/>
      <point x="530" y="42"/>
      <point x="525" y="47"/>
      <point x="519" y="47" type="curve" smooth="yes"/>
      <point x="110" y="47" type="line" smooth="yes"/>
      <point x="96" y="47"/>
      <point x="84" y="47"/>
      <point x="70" y="40" type="curve"/>
      <point x="70" y="32"/>
      <point x="70" y="24"/>
      <point x="70" y="11" type="curve" smooth="yes"/>
      <point x="70" y="5"/>
      <point x="75" y="0"/>
      <point x="81" y="0" type="curve" smooth="yes"/>
    </contour>
    <contour>
      <point x="300" y="720" type="curve" smooth="yes"/>
      <point x="203" y="720"/>
      <point x="129" y="684"/>
      <point x="90" y="645" type="curve" smooth="yes"/>
      <point x="88" y="643"/>
      <point x="87" y="641"/>
      <point x="87" y="637" type="curve" smooth="yes"/>
      <point x="87" y="614"/>
      <point x="87" y="599"/>
      <point x="87" y="590" type="curve"/>
      <point x="98" y="590" type="line"/>
      <point x="160" y="650"/>
      <point x="215" y="673"/>
      <point x="300" y="673" type="curve" smooth="yes"/>
      <point x="405.0" y="673.0"/>
      <point x="465.0" y="641.5378151260504"/>
      <point x="465" y="556" type="curve" smooth="yes"/>
      <point x="465.0" y="527.2432432432432"/>
      <point x="465.0" y="508.7567567567568"/>
      <point x="465" y="480" type="curve"/>
      <point x="497.0" y="481.0"/>
      <point x="515.0" y="512.0"/>
      <point x="515" y="561" type="curve" smooth="yes"/>
      <point x="515" y="658"/>
      <point x="432" y="720"/>
    </contour>
  </outline>
</glyph>
<glyph name="six" format="1">
  <advance width="600"/>
  <unicode hex="0036"/>
  <outline>
    <contour>
      <point x="228" y="24" type="curve"/>
      <point x="228.0" y="-1"/>
      <point x="238.59756097560975" y="-20.0"/>
      <point x="307" y="-20" type="curve"/>
      <point x="438.7889908256881" y="-20.0"/>
      <point x="528" y="62.0"/>
      <point x="528" y="181" type="curve" smooth="yes"/>
      <point x="528" y="243" type="line" smooth="yes"/>
      <point x="528" y="281"/>
      <point x="506" y="308"/>
      <point x="478" y="308" type="curve"/>
      <point x="478.0" y="289.44615384615383"/>
      <point x="478" y="267.8"/>
      <point x="478" y="241" type="curve" smooth="yes"/>
      <point x="478" y="181" type="line" smooth="yes"/>
      <point x="478" y="84"/>
      <point x="411.0" y="24.0"/>
      <point x="300" y="24" type="curve" smooth="yes"/>
      <point x="258" y="24"/>
      <point x="250" y="24"/>
    </contour>
    <contour>
      <point x="248" y="673" type="curve"/>
      <point x="272" y="673.0"/>
      <point x="295.3010752688172" y="673.0"/>
      <point x="331" y="673" type="curve" smooth="yes"/>
      <point x="400" y="673"/>
      <point x="440" y="658"/>
      <point x="491" y="615" type="curve"/>
      <point x="502" y="615" type="line"/>
      <point x="502" y="623"/>
      <point x="502" y="637"/>
      <point x="502" y="659" type="curve" smooth="yes"/>
      <point x="502" y="663"/>
      <point x="501" y="665"/>
      <point x="499" y="667" type="curve" smooth="yes"/>
      <point x="469" y="697"/>
      <point x="409" y="720"/>
      <point x="331" y="720" type="curve" smooth="yes"/>
      <point x="274.7741935483871" y="720.0"/>
      <point x="248.0" y="699.0"/>
    </contour>
    <contour>
      <point x="75" y="426" type="curve" smooth="yes"/>
      <point x="75" y="277" type="line" smooth="yes"/>
      <point x="75" y="69.00630914826499"/>
      <point x="142.13191489361702" y="-20.0"/>
      <point x="307" y="-20" type="curve" smooth="yes"/>
      <point x="315.4" y="-20.0"/>
      <point x="316.67467664459247" y="-2.864756816287837"/>
      <point x="300" y="24" type="curve"/>
      <point x="177.0" y="24.0"/>
      <point x="125" y="94.45255474452554"/>
      <point x="125" y="278" type="curve" smooth="yes"/>
      <point x="125" y="427" type="line" smooth="yes"/>
      <point x="125" y="589"/>
      <point x="195.0" y="673.0"/>
      <point x="331" y="673" type="curve"/>
      <point x="344" y="710"/>
      <point x="344" y="720"/>
      <point x="331" y="720" type="curve" smooth="yes"/>
      <point x="169.0" y="720.0"/>
      <point x="75" y="612"/>
    </contour>
    <contour>
      <point x="309" y="420" type="curve" smooth="yes"/>
      <point x="230" y="420"/>
      <point x="159" y="391"/>
      <point x="125" y="357" type="curve" smooth="yes"/>
      <point x="119" y="351"/>
      <point x="114" y="330"/>
      <point x="114" y="299" type="curve"/>
      <point x="174" y="351"/>
      <point x="233" y="373"/>
      <point x="306" y="373" type="curve" smooth="yes"/>
      <point x="421.0" y="373.0"/>
      <point x="478.0" y="327.3076923076923"/>
      <point x="478" y="241" type="curve" smooth="yes"/>
      <point x="478.0" y="234.48275862068965"/>
      <point x="478.0" y="219.58620689655172"/>
      <point x="478" y="214" type="curve"/>
      <point x="516" y="218"/>
      <point x="528" y="228"/>
      <point x="528" y="243" type="curve" smooth="yes"/>
      <point x="528.0" y="358"/>
      <point x="445.0" y="420.0"/>
    </contour>
  </outline>
</glyph>
<glyph name="eight" format="1">
  <advance width="600"/>
  <unicode hex="0038"/>
  <outline>
    <contour>
      <point x="357" y="347" type="curve" smooth="yes"/>
      <point x="272" y="378" type="line" smooth="yes"/>
      <point x="170" y="415"/>
      <point x="128" y="457"/>
      <point x="128" y="522" type="curve" smooth="yes"/>
      <point x="128" y="541"/>
      <point x="128" y="554"/>
      <point x="128" y="577" type="curve"/>
      <point x="104" y="577"/>
      <point x="78" y="546"/>
      <point x="78" y="516" type="curve" smooth="yes"/>
      <point x="78" y="437"/>
      <point x="136" y="378"/>
      <point x="260" y="332" type="curve" smooth="yes"/>
      <point x="346" y="300" type="line" smooth="yes"/>
      <point x="445" y="263"/>
      <point x="485" y="225"/>
      <point x="485" y="167" type="curve" smooth="yes"/>
      <point x="485" y="130"/>
      <point x="484" y="113"/>
      <point x="483" y="106" type="curve"/>
      <point x="504" y="113"/>
      <point x="535" y="154"/>
      <point x="535" y="176" type="curve"/>
      <point x="535" y="247"/>
      <point x="476" y="303"/>
    </contour>
    <contour>
      <point x="300" y="-20" type="curve" smooth="yes"/>
      <point x="442" y="-20"/>
      <point x="535" y="48"/>
      <point x="535" y="151" type="curve" smooth="yes"/>
      <point x="535" y="176" type="line" smooth="yes"/>
      <point x="535" y="198"/>
      <point x="514" y="215"/>
      <point x="485" y="218" type="curve"/>
      <point x="485" y="208"/>
      <point x="485" y="190"/>
      <point x="485" y="155" type="curve" smooth="yes"/>
      <point x="485" y="73"/>
      <point x="417" y="26"/>
      <point x="300" y="26" type="curve" smooth="yes"/>
      <point x="260" y="26"/>
      <point x="234" y="26"/>
      <point x="217" y="26" type="curve"/>
      <point x="217" y="3"/>
      <point x="258" y="-20"/>
    </contour>
    <contour>
      <point x="303" y="720" type="curve" smooth="yes"/>
      <point x="172" y="720"/>
      <point x="78" y="645"/>
      <point x="78" y="541" type="curve" smooth="yes"/>
      <point x="78" y="516" type="line" smooth="yes"/>
      <point x="78" y="482"/>
      <point x="96" y="462"/>
      <point x="128" y="462" type="curve"/>
      <point x="128" y="488"/>
      <point x="128" y="507"/>
      <point x="128" y="534" type="curve" smooth="yes"/>
      <point x="128" y="612"/>
      <point x="202" y="674"/>
      <point x="297" y="674" type="curve" smooth="yes"/>
      <point x="332" y="674"/>
      <point x="368" y="674"/>
      <point x="388" y="674" type="curve"/>
      <point x="388" y="700"/>
      <point x="351" y="720"/>
    </contour>
    <contour>
      <point x="329" y="338" type="curve" smooth="yes"/>
      <point x="422" y="338"/>
      <point x="525" y="434"/>
      <point x="525" y="521" type="curve" smooth="yes"/>
      <point x="525" y="546" type="line" smooth="yes"/>
      <point x="525" y="650"/>
      <point x="436" y="720"/>
      <point x="303" y="720" type="curve" smooth="yes"/>
      <point x="286" y="720"/>
      <point x="285" y="709"/>
      <point x="297" y="674" type="curve"/>
      <point x="416" y="674"/>
      <point x="474" y="629"/>
      <point x="474" y="539" type="curve" smooth="yes"/>
      <point x="474" y="528" type="line" smooth="yes"/>
      <point x="474" y="457"/>
      <point x="407" y="394"/>
      <point x="289" y="354" type="curve"/>
      <point x="293" y="344"/>
      <point x="308" y="338"/>
    </contour>
    <contour>
      <point x="300" y="26" type="curve"/>
      <point x="188" y="26"/>
      <point x="115" y="77"/>
      <point x="115" y="156" type="curve" smooth="yes"/>
      <point x="115" y="169" type="line" smooth="yes"/>
      <point x="115" y="246"/>
      <point x="189" y="309"/>
      <point x="300" y="328" type="curve"/>
      <point x="295" y="340"/>
      <point x="280" y="352"/>
      <point x="269" y="352" type="curve" smooth="yes"/>
      <point x="160" y="352"/>
      <point x="65" y="269"/>
      <point x="65" y="174" type="curve" smooth="yes"/>
      <point x="65" y="149" type="line" smooth="yes"/>
      <point x="65" y="50"/>
      <point x="163" y="-20"/>
      <point x="300" y="-20" type="curve" smooth="yes"/>
      <point x="318" y="-20"/>
      <point x="318" y="-1"/>
    </contour>
  </outline>
</glyph>
<glyph name="I" format="1">
  <advance width="600"/>
  <unicode hex="0049"/>
  <outline>
    <contour>
      <point x="325.0" y="20.0" type="curve"/>
      <point x="325.0" y="669.0" type="line" smooth="yes"/>
      <point x="325.0" y="675.0"/>
      <point x="320.0" y="680.0"/>
      <point x="275.0" y="680.0" type="curve"/>
      <point x="275.0" y="31.0" type="line" smooth="yes"/>
      <point x="275.0" y="25.0"/>
      <point x="280.0" y="20.0"/>
    </contour>
    <contour>
      <point x="90" y="700" type="line"/>
      <point x="90.0" y="687"/>
      <point x="90.0" y="677"/>
      <point x="90" y="664" type="curve"/>
      <point x="90" y="661"/>
      <point x="91" y="658"/>
      <point x="93" y="656" type="curve" smooth="yes"/>
      <point x="95" y="654"/>
      <point x="98" y="653"/>
      <point x="101" y="653" type="curve" smooth="yes"/>
      <point x="510" y="653" type="line"/>
      <point x="510.0" y="666"/>
      <point x="510.0" y="676"/>
      <point x="510" y="689" type="curve" smooth="yes"/>
      <point x="510.0" y="695.0"/>
      <point x="505.0" y="700.0"/>
      <point x="499" y="700" type="curve" smooth="yes"/>
    </contour>
    <contour>
      <point x="90" y="47" type="line"/>
      <point x="90.0" y="34"/>
      <point x="90.0" y="24"/>
      <point x="90" y="11" type="curve"/>
      <point x="90" y="8"/>
      <point x="91" y="5"/>
      <point x="93" y="3" type="curve" smooth="yes"/>
      <point x="95" y="1"/>
      <point x="98.0" y="0.0"/>
      <point x="101" y="0" type="curve" smooth="yes"/>
      <point x="510" y="0" type="line"/>
      <point x="510.0" y="12.987"/>
      <point x="510" y="24"/>
      <point x="510" y="36" type="curve" smooth="yes"/>
      <point x="510.0" y="42.0"/>
      <point x="505" y="47"/>
      <point x="499" y="47" type="curve" smooth="yes"/>
    </contour>
    <contour>
      <point x="300" y="711" type="move" name="top"/>
    </contour>
    <contour>
      <point x="510" y="-1" type="move" name="ogonek"/>
    </contour>
    <contour>
      <point x="300" y="-1" type="move" name="bottom"/>
    </contour>
  </outline>
</glyph>
<glyph name="J" format="1">
  <advance width="600"/>
  <unicode hex="004A"/>
  <outline>
    <contour>
      <point x="140" y="700" type="line"/>
      <point x="140" y="687"/>
      <point x="140" y="677"/>
      <point x="140" y="664" type="curve" smooth="yes"/>
      <point x="140" y="661"/>
      <point x="141" y="658"/>
      <point x="143" y="656" type="curve" smooth="yes"/>
      <point x="145" y="654"/>
      <point x="148" y="653"/>
      <point x="151" y="653" type="curve" smooth="yes"/>
      <point x="451" y="653" type="line"/>
      <point x="451" y="688"/>
      <point x="448" y="700"/>
      <point x="440" y="700" type="curve"/>
    </contour>
    <contour>
      <point x="490" y="240" type="curve" smooth="yes"/>
      <point x="490" y="689" type="line" smooth="yes"/>
      <point x="490" y="696"/>
      <point x="487" y="700"/>
      <point x="479" y="700" type="curve" smooth="yes"/>
      <point x="438" y="700" type="line"/>
      <point x="438" y="237" type="line" smooth="yes"/>
      <point x="438" y="188"/>
      <point x="438.0" y="160"/>
      <point x="438" y="128" type="curve"/>
      <point x="468.15999999999997" y="128.0"/>
      <point x="490" y="182.0"/>
    </contour>
    <contour>
      <point x="260" y="27" type="curve" smooth="yes"/>
      <point x="209.0" y="27.0"/>
      <point x="169.0" y="41.0"/>
      <point x="122" y="72" type="curve"/>
      <point x="110" y="72" type="line"/>
      <point x="110" y="58"/>
      <point x="110" y="48"/>
      <point x="110" y="34" type="curve"/>
      <point x="110" y="30"/>
      <point x="111" y="28"/>
      <point x="113" y="26" type="curve" smooth="yes"/>
      <point x="137" y="2"/>
      <point x="197" y="-20"/>
      <point x="260" y="-20" type="curve" smooth="yes"/>
      <point x="265" y="-20" type="line" smooth="yes"/>
      <point x="420.0" y="-20"/>
      <point x="490.0" y="86"/>
      <point x="490" y="240" type="curve"/>
      <point x="490.0" y="246.0"/>
      <point x="485.68676817339934" y="251.51336422668675"/>
      <point x="438" y="237" type="curve"/>
      <point x="438.0" y="105.0"/>
      <point x="385.5888888888889" y="27.0"/>
    </contour>
    <contour>
      <point x="300" y="711" type="move" name="top"/>
    </contour>
  </outline>
</glyph>
<glyph name="W" format="1">
  <advance width="600"/>
  <unicode hex="0057"/>
  <outline>
    <contour>
      <point x="29" y="700" type="curve"/>
      <point x="62" y="467"/>
      <point x="95" y="234"/>
      <point x="128" y="1" type="curve"/>
      <point x="129" y="-7"/>
      <point x="136" y="-10"/>
      <point x="141" y="-10" type="curve"/>
      <point x="159" y="-10" type="line" smooth="yes"/>
      <point x="168.52941176470588" y="-10"/>
      <point x="179" y="0"/>
      <point x="177" y="15" type="curve"/>
      <point x="147" y="240"/>
      <point x="117" y="465"/>
      <point x="87" y="690" type="curve"/>
      <point x="86" y="695"/>
      <point x="85" y="697"/>
      <point x="84" y="698" type="curve" smooth="yes"/>
      <point x="83" y="699"/>
      <point x="81" y="700"/>
      <point x="78" y="700" type="curve"/>
      <point x="62" y="700.0"/>
      <point x="45" y="700.0"/>
    </contour>
    <contour>
      <point x="515" y="700" type="curve"/>
      <point x="484" y="472"/>
      <point x="453" y="244"/>
      <point x="422" y="16" type="curve"/>
      <point x="419" y="0"/>
      <point x="411" y="-5"/>
      <point x="403" y="-10" type="curve"/>
      <point x="469" y="-10" type="line"/>
      <point x="502" y="222"/>
      <point x="535" y="456"/>
      <point x="568" y="688" type="curve"/>
      <point x="569" y="693"/>
      <point x="569" y="696"/>
      <point x="567" y="698" type="curve" smooth="yes"/>
      <point x="566" y="699"/>
      <point x="564" y="700"/>
      <point x="560" y="700.0" type="curve"/>
      <point x="545" y="700.0"/>
      <point x="530" y="700.0"/>
    </contour>
    <contour>
      <point x="308" y="600" type="curve"/>
      <point x="271" y="600" type="line"/>
      <point x="235" y="406"/>
      <point x="199" y="210"/>
      <point x="163" y="16" type="curve"/>
      <point x="159" y="0"/>
      <point x="151" y="-2"/>
      <point x="141" y="-10" type="curve"/>
      <point x="206" y="-10" type="line"/>
      <point x="243" y="186"/>
      <point x="280" y="384"/>
      <point x="317" y="580" type="curve"/>
      <point x="320" y="595"/>
      <point x="317.0" y="600.0"/>
    </contour>
    <contour>
      <point x="325" y="600" type="curve"/>
      <point x="280" y="600" type="line"/>
      <point x="317" y="401"/>
      <point x="353" y="200"/>
      <point x="390" y="1" type="curve"/>
      <point x="392" y="-7"/>
      <point x="398" y="-10"/>
      <point x="403" y="-10" type="curve"/>
      <point x="419" y="-10" type="line"/>
      <point x="428.0" y="-10.0"/>
      <point x="440" y="0"/>
      <point x="436" y="16" type="curve"/>
      <point x="402" y="207"/>
      <point x="368" y="399"/>
      <point x="334" y="590" type="curve"/>
      <point x="331" y="599"/>
      <point x="329" y="600"/>
    </contour>
    <contour>
      <point x="298" y="711" type="move" name="top"/>
    </contour>
  </outline>
</glyph>
<glyph name="Z" format="1">
  <advance width="600"/>
  <unicode hex="005A"/>
  <outline>
    <contour>
      <point x="90" y="700" type="line"/>
      <point x="90" y="687"/>
      <point x="90" y="677"/>
      <point x="90" y="664" type="curve" smooth="yes"/>
      <point x="90" y="661"/>
      <point x="91" y="658"/>
      <point x="93" y="656" type="curve" smooth="yes"/>
      <point x="95" y="654"/>
      <point x="98" y="653"/>
      <point x="101" y="653" type="curve" smooth="yes"/>
      <point x="480" y="653" type="line" smooth="yes"/>
      <point x="488" y="653"/>
      <point x="509" y="653"/>
      <point x="525" y="653" type="curve" smooth="yes"/>
      <point x="532" y="653"/>
      <point x="538" y="653"/>
      <point x="540" y="653" type="curve"/>
      <point x="540" y="689" type="line" smooth="yes"/>
      <point x="540" y="695"/>
      <point x="535" y="700"/>
      <point x="529" y="700" type="curve" smooth="yes"/>
    </contour>
    <contour>
      <point x="503" y="682" type="curve"/>
      <point x="357" y="473"/>
      <point x="207" y="257"/>
      <point x="60" y="47" type="curve"/>
      <point x="98.0" y="27.0"/>
      <point x="108" y="26"/>
      <point x="112" y="32" type="curve" smooth="yes"/>
      <point x="284" y="278"/>
      <point x="540.0" y="652.0"/>
      <point x="540" y="653" type="curve"/>
      <point x="513.0" y="685"/>
      <point x="509" y="688.0"/>
    </contour>
    <contour>
      <point x="540" y="0" type="line"/>
      <point x="540.0" y="13"/>
      <point x="540.0" y="23"/>
      <point x="540" y="36" type="curve" smooth="yes"/>
      <point x="540" y="39"/>
      <point x="539" y="42"/>
      <point x="537" y="44" type="curve" smooth="yes"/>
      <point x="535" y="46"/>
      <point x="532" y="47"/>
      <point x="529" y="47" type="curve" smooth="yes"/>
      <point x="121" y="47" type="line" smooth="yes"/>
      <point x="102" y="47"/>
      <point x="82" y="47"/>
      <point x="60" y="47" type="curve"/>
      <point x="60" y="11" type="line" smooth="yes"/>
      <point x="60" y="5"/>
      <point x="65.0" y="0.0"/>
      <point x="71" y="0" type="curve" smooth="yes"/>
    </contour>
    <contour>
      <point x="130" y="550" type="curve"/>
      <point x="130.0" y="589.4319526627219"/>
      <point x="130.0" y="629.5680473372781"/>
      <point x="130" y="669" type="curve"/>
      <point x="130" y="692"/>
      <point x="120.0" y="700"/>
      <point x="100" y="700" type="curve" smooth="yes"/>
      <point x="80" y="700" type="line"/>
      <point x="80.0" y="653.6666666666666"/>
      <point x="80.0" y="607.3333333333334"/>
      <point x="80" y="561" type="curve"/>
      <point x="80.0" y="555.0"/>
      <point x="85.0" y="550.0"/>
      <point x="91" y="550" type="curve" smooth="yes"/>
      <point x="104" y="550.0"/>
      <point x="117" y="550.0"/>
    </contour>
    <contour>
      <point x="300" y="711" type="move" name="top"/>
    </contour>
  </outline>
</glyph>
<glyph name="bracketleft" format="1">
  <advance width="600"/>
  <unicode hex="005B"/>
  <outline>
    <contour>
      <point x="205" y="653" type="curve" smooth="yes"/>
      <point x="205" y="-112" type="line" smooth="yes"/>
      <point x="205.0" y="-122.0"/>
      <point x="216" y="-123.0"/>
      <point x="255" y="-123" type="curve"/>
      <point x="255" y="749" type="line" smooth="yes"/>
      <point x="255" y="755"/>
      <point x="247" y="760"/>
      <point x="220" y="760" type="curve" smooth="yes"/>
      <point x="214.0" y="760.0"/>
      <point x="211.0" y="760.0"/>
      <point x="205" y="760" type="curve"/>
      <point x="205.0" y="724"/>
      <point x="205" y="689"/>
    </contour>
    <contour>
      <point x="520" y="710" type="line"/>
      <point x="520.0" y="723"/>
      <point x="520.0" y="736"/>
      <point x="520" y="749" type="curve" smooth="yes"/>
      <point x="520.0" y="752.0"/>
      <point x="519" y="755"/>
      <point x="517" y="757" type="curve" smooth="yes"/>
      <point x="515" y="759"/>
      <point x="512" y="760"/>
      <point x="509" y="760" type="curve" smooth="yes"/>
      <point x="220" y="760" type="line"/>
      <point x="220" y="716"/>
      <point x="226.0" y="710.0"/>
      <point x="231" y="710" type="curve"/>
    </contour>
    <contour>
      <point x="520" y="-161" type="line"/>
      <point x="520.0" y="-147"/>
      <point x="520.0" y="-136"/>
      <point x="520" y="-122" type="curve" smooth="yes"/>
      <point x="520.0" y="-116.0"/>
      <point x="515" y="-111"/>
      <point x="509" y="-111" type="curve" smooth="yes"/>
      <point x="205" y="-111" type="line"/>
      <point x="205" y="-150" type="line" smooth="yes"/>
      <point x="205" y="-156"/>
      <point x="210" y="-161"/>
      <point x="216" y="-161" type="curve" smooth="yes"/>
    </contour>
  </outline>
</glyph>
<glyph name="backslash" format="1">
  <advance width="600"/>
  <unicode hex="005C"/>
  <outline>
    <contour>
      <point x="94.0" y="750.0" type="curve"/>
      <point x="211" y="461"/>
      <point x="328" y="170"/>
      <point x="445.0" y="-119.0" type="curve" smooth="yes"/>
      <point x="448.0" y="-127.0"/>
      <point x="454.0" y="-130.0"/>
      <point x="460.0" y="-130.0" type="curve" smooth="yes"/>
      <point x="477.0" y="-130.0"/>
      <point x="486.0" y="-130.0"/>
      <point x="504.0" y="-130.0" type="curve"/>
      <point x="489.0" y="-94.0"/>
      <point x="474.0" y="-57.0"/>
      <point x="460.0" y="-21.0" type="curve"/>
      <point x="357" y="233"/>
      <point x="254" y="489"/>
      <point x="151.0" y="743.0" type="curve"/>
      <point x="149.0" y="748.0"/>
      <point x="145.0" y="750.0"/>
      <point x="139.0" y="750.0" type="curve" smooth="yes"/>
      <point x="122.0" y="750.0"/>
      <point x="111.0" y="750.0"/>
    </contour>
  </outline>
</glyph>
<glyph name="asciicircum" format="1">
  <advance width="600"/>
  <unicode hex="005E"/>
  <outline>
    <contour>
      <point x="110.0" y="376.0" type="line"/>
      <point x="184.0" y="514.0"/>
      <point x="222.0" y="586.0"/>
      <point x="296.0" y="724.0" type="curve"/>
      <point x="304.0" y="739.0"/>
      <point x="307.0" y="744.0"/>
      <point x="315.0" y="750.0" type="curve"/>
      <point x="253.0" y="750.0" type="line"/>
      <point x="179.0" y="612.0"/>
      <point x="89.0" y="443.0"/>
      <point x="67.0" y="402.0" type="curve" smooth="yes"/>
      <point x="60.0" y="389.0"/>
      <point x="59.0" y="386.0"/>
      <point x="59.0" y="382.0" type="curve" smooth="yes"/>
      <point x="59.0" y="378.0"/>
      <point x="62.0" y="376.0"/>
      <point x="66.0" y="376.0" type="curve"/>
    </contour>
    <contour>
      <point x="534.0" y="376.0" type="curve"/>
      <point x="457.0" y="519.0"/>
      <point x="415.0" y="597.0"/>
      <point x="339.0" y="739.0" type="curve" smooth="yes"/>
      <point x="334.0" y="748.0"/>
      <point x="330.0" y="750.0"/>
      <point x="322.0" y="750.0" type="curve" smooth="yes"/>
      <point x="306.0" y="750.0" type="line" smooth="yes"/>
      <point x="282.0" y="750.0"/>
      <point x="250.0" y="733.0"/>
      <point x="246.0" y="700.0" type="curve"/>
      <point x="263.0" y="700.0"/>
      <point x="280.0" y="700.0"/>
      <point x="295.0" y="700.0" type="curve" smooth="yes"/>
      <point x="300.0" y="700.0"/>
      <point x="302.0" y="700.0"/>
      <point x="305.0" y="695.0" type="curve" smooth="yes"/>
      <point x="374.0" y="566.0"/>
      <point x="405.0" y="509.0"/>
      <point x="472.0" y="384.0" type="curve" smooth="yes"/>
      <point x="476.0" y="377.0"/>
      <point x="479.0" y="376.0"/>
      <point x="487.0" y="376.0" type="curve" smooth="yes"/>
      <point x="503.0" y="376.0"/>
      <point x="518.0" y="376.0"/>
    </contour>
  </outline>
</glyph>
<glyph name="h" format="1">
  <advance width="600.0"/>
  <unicode hex="0068"/>
  <outline>
    <contour>
      <point x="91.43787303309821" y="0.0" type="curve"/>
      <point x="278.8410200759631" y="739.7618014107434" type="line" smooth="yes"/>
      <point x="279.60282148670643" y="742.7618014107434"/>
      <point x="279.3646228974498" y="745.7618014107434"/>
      <point x="278.1264243081931" y="747.7618014107434" type="curve" smooth="yes"/>
      <point x="276.8882257189365" y="749.7618014107434"/>
      <point x="273.8882257189365" y="750.7618014107434"/>
      <point x="270.8882257189365" y="750.7618014107434" type="curve" smooth="yes"/>
      <point x="257.8882257189365" y="750.7618014107434"/>
      <point x="244.8882257189365" y="750.7618014107434"/>
      <point x="231.8882257189365" y="750.7618014107434" type="curve"/>
      <point x="228.07921866521974" y="734.7618014107434"/>
      <point x="218.93760173629948" y="698.7618014107434"/>
      <point x="206.74877916440585" y="650.7618014107434" type="curve" smooth="yes"/>
      <point x="44.48507867607162" y="11.0" type="line" smooth="yes"/>
      <point x="42.96147585458492" y="5.0"/>
      <point x="46.437873033098214" y="0.0"/>
      <point x="52.437873033098214" y="0.0" type="curve" smooth="yes"/>
      <point x="65.43787303309821" y="0.0"/>
      <point x="78.43787303309821" y="0.0"/>
    </contour>
    <contour>
      <point x="412.1351058057515" y="536.0" type="curve" smooth="yes"/>
      <point x="326.32609875203474" y="536.0"/>
      <point x="266.5170916983179" y="496.5236028214867"/>
      <point x="197.09007053716766" y="424.81117742810636" type="curve" smooth="yes"/>
      <point x="175.04286489419425" y="402.0021703743896"/>
      <point x="166.47205642973412" y="367.90775908844273"/>
      <point x="163.901247965274" y="332.90775908844273" type="curve"/>
      <point x="261.86972067220853" y="442.4303164399061"/>
      <point x="329.2316874660879" y="490.5236028214867"/>
      <point x="404.0406945198047" y="490.5236028214867" type="curve" smooth="yes"/>
      <point x="464.6115029842648" y="490.5236028214867"/>
      <point x="494.5170916983179" y="447.95279435702656"/>
      <point x="473.1866521975041" y="363.66739012479655" type="curve"/>
      <point x="515.186652197504" y="365.66739012479655"/>
      <point x="522.4248507867608" y="376.73544686458416"/>
      <point x="525.4720564297342" y="389.19099294628325" type="curve" smooth="yes"/>
      <point x="542.9934888768313" y="459.0965816603364"/>
      <point x="498.8969072164948" y="536.0"/>
    </contour>
    <contour>
      <point x="426.4378730330982" y="0.0" type="curve"/>
      <point x="435.57948996201844" y="36.0"/>
      <point x="443.9593054801953" y="68.0"/>
      <point x="451.5773195876289" y="98.0" type="curve" smooth="yes"/>
      <point x="525.4720564297342" y="389.19099294628325" type="line"/>
      <point x="531.5664677156809" y="414.2434773812042"/>
      <point x="526.2316874660879" y="453.4763971785133"/>
      <point x="481.2316874660879" y="453.4763971785133" type="curve"/>
      <point x="483.3754747693977" y="426.4763971785133"/>
      <point x="482.3282691264243" y="415.4763971785133"/>
      <point x="470.13944655453065" y="367.4763971785133" type="curve" smooth="yes"/>
      <point x="379.4850786760716" y="11.0" type="line" smooth="yes"/>
      <point x="377.96147585458493" y="5.0"/>
      <point x="381.4378730330982" y="0.0"/>
      <point x="387.4378730330982" y="0.0" type="curve" smooth="yes"/>
      <point x="400.4378730330982" y="0.0"/>
      <point x="413.4378730330982" y="0.0"/>
    </contour>
  </outline>
</glyph>
<glyph name="l" format="1">
  <advance width="600.0"/>
  <unicode hex="006C"/>
  <outline>
    <contour>
      <point x="211.83339457510309" y="750.0" type="curve"/>
      <point x="208.87168646222744" y="738.3333333333334"/>
      <point x="206.5023199719269" y="728.4442032917345"/>
      <point x="203.4559916272549" y="716.5236028214867" type="curve" smooth="yes"/>
      <point x="201.93282745491882" y="710.5236028214867"/>
      <point x="205.66352397797215" y="705.5236028214867"/>
      <point x="211.66352397797215" y="705.5236028214867" type="curve" smooth="yes"/>
      <point x="274.66352397797215" y="705.5236028214867"/>
      <point x="338.66352397797215" y="705.5236028214867"/>
      <point x="401.6635239779721" y="705.5236028214867" type="curve"/>
      <point x="409.53320553504165" y="736.5902984264785"/>
      <point x="407.83339457510306" y="750.0"/>
      <point x="401.83339457510306" y="750.0" type="curve" smooth="yes"/>
      <point x="326.83339457510306" y="750.0"/>
      <point x="286.83339457510306" y="750.0"/>
    </contour>
    <contour>
      <point x="448.07181248893505" y="747.0" type="curve" smooth="yes"/>
      <point x="446.57953387971384" y="749.0"/>
      <point x="443.83339457510306" y="750.0"/>
      <point x="440.83339457510306" y="750.0" type="curve" smooth="yes"/>
      <point x="401.83339457510306" y="750.0" type="line"/>
      <point x="220.06913667633577" y="34.0" type="line" smooth="yes"/>
      <point x="218.2921118086104" y="27.0"/>
      <point x="223.53052972244237" y="24.0"/>
      <point x="267.5305297224424" y="24.0" type="curve"/>
      <point x="449.0409269258203" y="739.0" type="line" smooth="yes"/>
      <point x="449.8025090119884" y="742.0"/>
      <point x="449.5640910981564" y="745.0"/>
    </contour>
    <contour>
      <point x="22.607743630229173" y="44.476397178513295" type="line"/>
      <point x="19.561415285557096" y="32.55579670826551"/>
      <point x="17.19204879525659" y="22.666666666666664"/>
      <point x="14.230340682380955" y="11.0" type="curve" smooth="yes"/>
      <point x="13.468758596212936" y="8.0"/>
      <point x="13.707176510044917" y="5.0"/>
      <point x="15.199455119266233" y="3.0" type="curve" smooth="yes"/>
      <point x="16.691733728487563" y="1.0"/>
      <point x="19.437873033098214" y="0.0"/>
      <point x="22.437873033098214" y="0.0" type="curve"/>
      <point x="461.4378730330982" y="0.0" type="line"/>
      <point x="464.39958114597385" y="11.666666666666666"/>
      <point x="466.7689476362744" y="21.55579670826551"/>
      <point x="469.81527598094647" y="33.476397178513295" type="curve" smooth="yes"/>
      <point x="471.3384401532825" y="39.476397178513295"/>
      <point x="467.6077436302292" y="44.476397178513295"/>
      <point x="461.6077436302292" y="44.476397178513295" type="curve"/>
    </contour>
  </outline>
</glyph>
<glyph name="m" format="1">
  <advance width="600.0"/>
  <unicode hex="006D"/>
  <outline>
    <contour>
      <point x="41.437873033098214" y="0.0" type="curve"/>
      <point x="172.17613115860823" y="515.0" type="line" smooth="yes"/>
      <point x="172.93771324477626" y="518.0"/>
      <point x="172.6992953309443" y="521.0"/>
      <point x="171.20701672172294" y="523.0" type="curve" smooth="yes"/>
      <point x="169.7147381125016" y="525.0"/>
      <point x="166.968598807891" y="526.0"/>
      <point x="163.968598807891" y="526.0" type="curve" smooth="yes"/>
      <point x="150.968598807891" y="526.0"/>
      <point x="137.96859880789097" y="526.0"/>
      <point x="124.96859880789097" y="526.0" type="curve"/>
      <point x="120.90682768166153" y="510.0"/>
      <point x="111.7678426476453" y="474.0"/>
      <point x="99.58252926895699" y="426.0" type="curve" smooth="yes"/>
      <point x="-5.769659317619045" y="11.0" type="line" smooth="yes"/>
      <point x="-7.292823489955083" y="5.0"/>
      <point x="-3.5621269669017863" y="0.0"/>
      <point x="2.4378730330982137" y="0.0" type="curve" smooth="yes"/>
      <point x="15.437873033098214" y="0.0"/>
      <point x="28.437873033098214" y="0.0"/>
    </contour>
    <contour>
      <point x="300.9913185024417" y="536.0" type="curve" smooth="yes"/>
      <point x="254.13336950623983" y="536.0"/>
      <point x="200.75532707499983" y="506.34353507942865"/>
      <point x="147.6608790016278" y="442.5236028214867" type="curve" smooth="yes"/>
      <point x="127.56646771568094" y="418.0"/>
      <point x="112.44354423494075" y="390.0"/>
      <point x="120.84316615481792" y="364.0" type="curve"/>
      <point x="196.73167294306597" y="450.6820090217716"/>
      <point x="247.0984387060289" y="490.5236028214867"/>
      <point x="288.1351058057515" y="490.5236028214867" type="curve" smooth="yes"/>
      <point x="315.2202327123651" y="490.5236028214867"/>
      <point x="325.2788931090613" y="469.5342684299609"/>
      <point x="315.3754747693977" y="423.5729788388497" type="curve"/>
      <point x="359.3728171237957" y="422.5730392398861"/>
      <point x="363.09007053716766" y="423.95409658166034"/>
      <point x="363.85187194791104" y="426.33478024959305" type="curve" smooth="yes"/>
      <point x="380.8368007437183" y="490.66739012479655"/>
      <point x="354.18144329896904" y="536.0"/>
    </contour>
    <contour>
      <point x="256.4378730330982" y="0.0" type="curve"/>
      <point x="363.85187194791104" y="426.33478024959305" type="line" smooth="yes"/>
      <point x="371.46988605534455" y="455.1437873033098"/>
      <point x="361.78709087983805" y="501.28540423223006"/>
      <point x="317.8759421185468" y="501.28540423223006" type="curve"/>
      <point x="323.9949723884245" y="474.4837056315501"/>
      <point x="322.99348887683124" y="461.0246880086815"/>
      <point x="310.8046663049376" y="417.71676614215954" type="curve" smooth="yes"/>
      <point x="209.23034068238093" y="11.0" type="line" smooth="yes"/>
      <point x="207.96147585458493" y="5.0"/>
      <point x="211.4378730330982" y="0.0"/>
      <point x="217.4378730330982" y="0.0" type="curve" smooth="yes"/>
      <point x="230.4378730330982" y="0.0"/>
      <point x="243.4378730330982" y="0.0"/>
    </contour>
    <contour>
      <point x="513.7059142702116" y="536.0" type="curve" smooth="yes"/>
      <point x="468.32392837764513" y="536.0"/>
      <point x="414.9935256642565" y="507.105336490172"/>
      <point x="363.4226804123711" y="442.5236028214867" type="curve" smooth="yes"/>
      <point x="343.3282691264243" y="418.0"/>
      <point x="327.44354423494076" y="390.0"/>
      <point x="335.84316615481794" y="364.0" type="curve"/>
      <point x="410.0359068702554" y="450.6820090217716"/>
      <point x="459.0512330630555" y="490.5236028214867"/>
      <point x="500.84970157352143" y="490.5236028214867" type="curve" smooth="yes"/>
      <point x="530.9820341231084" y="490.5236028214867"/>
      <point x="543.3260987520347" y="469.5342684299609"/>
      <point x="530.3754747693977" y="423.5729788388497" type="curve"/>
      <point x="574.3728171237957" y="422.5730392398861"/>
      <point x="578.0900705371677" y="424.049376017363"/>
      <point x="578.851871947911" y="426.33478024959305" type="curve" smooth="yes"/>
      <point x="597.4364395403604" y="492.42919153553987"/>
      <point x="572.4677156809549" y="536.0"/>
    </contour>
    <contour>
      <point x="471.4378730330982" y="0.0" type="curve"/>
      <point x="480.5768580671145" y="36.0"/>
      <point x="488.9593054801953" y="68.0"/>
      <point x="496.3162211812535" y="98.0" type="curve" smooth="yes"/>
      <point x="578.851871947911" y="426.33478024959305" type="line" smooth="yes"/>
      <point x="586.4698860553445" y="455.1437873033098"/>
      <point x="576.787090879838" y="501.28540423223006"/>
      <point x="532.8759421185468" y="501.28540423223006" type="curve"/>
      <point x="538.9949723884245" y="474.4837056315501"/>
      <point x="537.9934888768313" y="461.0246880086815"/>
      <point x="525.8046663049377" y="417.71676614215954" type="curve" smooth="yes"/>
      <point x="424.2303406823809" y="11.0" type="line" smooth="yes"/>
      <point x="422.96147585458493" y="5.0"/>
      <point x="426.4378730330982" y="0.0"/>
      <point x="432.4378730330982" y="0.0" type="curve" smooth="yes"/>
      <point x="445.4378730330982" y="0.0"/>
      <point x="458.4378730330982" y="0.0"/>
    </contour>
  </outline>
</glyph>
<glyph name="n" format="1">
  <advance width="600.0"/>
  <unicode hex="006E"/>
  <outline>
    <contour>
      <point x="100.57948996201844" y="0.0" type="curve"/>
      <point x="230.84753119913185" y="515.0" type="line" smooth="yes"/>
      <point x="231.6093326098752" y="518.0"/>
      <point x="231.37113402061857" y="521.0"/>
      <point x="230.1329354313619" y="523.0" type="curve" smooth="yes"/>
      <point x="228.89473684210526" y="525.0"/>
      <point x="225.89473684210526" y="526.0"/>
      <point x="222.89473684210526" y="526.0" type="curve" smooth="yes"/>
      <point x="209.89473684210526" y="526.0"/>
      <point x="196.89473684210526" y="526.0"/>
      <point x="183.89473684210526" y="526.0" type="curve"/>
      <point x="180.0857297883885" y="510.0"/>
      <point x="170.94411285946825" y="474.0"/>
      <point x="158.7552902875746" y="426.0" type="curve" smooth="yes"/>
      <point x="53.626695604991866" y="11.0" type="line" smooth="yes"/>
      <point x="52.10309278350516" y="5.0"/>
      <point x="55.57948996201845" y="0.0"/>
      <point x="61.57948996201845" y="0.0" type="curve" smooth="yes"/>
      <point x="74.57948996201844" y="0.0"/>
      <point x="87.57948996201844" y="0.0"/>
    </contour>
    <contour>
      <point x="418.9913185024417" y="536.0" type="curve" smooth="yes"/>
      <point x="339.2767227346717" y="536.0"/>
      <point x="271.08790016277806" y="491.19099294628325"/>
      <point x="205.46988605534455" y="422.5257731958763" type="curve" smooth="yes"/>
      <point x="181.89907759088442" y="398.1931633206728"/>
      <point x="172.56646771568094" y="362.5751492132393"/>
      <point x="169.99565925122084" y="327.5751492132393" type="curve"/>
      <point x="268.72593336889867" y="440.9067136184194"/>
      <point x="347.5149213239284" y="490.5236028214867"/>
      <point x="412.7059142702116" y="490.5236028214867" type="curve" smooth="yes"/>
      <point x="475.5621269669018" y="490.5236028214867"/>
      <point x="502.8969072164948" y="448.65107614396817"/>
      <point x="481.566467715681" y="364.049376017363" type="curve"/>
      <point x="524.5178242605442" y="365.8111461713202"/>
      <point x="530.0428648941943" y="374.5729788388497"/>
      <point x="533.0900705371677" y="386.1437873033098" type="curve" smooth="yes"/>
      <point x="552.1351058057514" y="463.3819858925665"/>
      <point x="514.6093326098752" y="536.0"/>
    </contour>
    <contour>
      <point x="435.57948996201844" y="0.0" type="curve"/>
      <point x="444.7211068909387" y="36.0"/>
      <point x="453.1009224091156" y="68.0"/>
      <point x="460.7189365165491" y="98.0" type="curve" smooth="yes"/>
      <point x="533.0900705371677" y="386.1437873033098" type="line"/>
      <point x="539.1844818231145" y="411.1962717382308"/>
      <point x="535.3733043950082" y="453.4763971785133"/>
      <point x="490.3733043950081" y="453.4763971785133" type="curve"/>
      <point x="492.3385226851975" y="427.0121042178747"/>
      <point x="491.46988605534455" y="416.3184014940252"/>
      <point x="479.2810634834509" y="369.3819858925665" type="curve" smooth="yes"/>
      <point x="388.6266956049919" y="11.0" type="line" smooth="yes"/>
      <point x="387.1030927835052" y="5.0"/>
      <point x="390.57948996201844" y="0.0"/>
      <point x="396.57948996201844" y="0.0" type="curve" smooth="yes"/>
      <point x="409.57948996201844" y="0.0"/>
      <point x="422.57948996201844" y="0.0"/>
    </contour>
  </outline>
</glyph>
<glyph name="r" format="1">
  <advance width="600.0"/>
  <unicode hex="0072"/>
  <outline>
    <contour>
      <point x="154.753119913185" y="526.0" type="curve"/>
      <point x="151.70591427021162" y="514.0"/>
      <point x="149.42051003798156" y="503.7618014107434"/>
      <point x="146.37330439500812" y="491.7618014107434" type="curve" smooth="yes"/>
      <point x="144.84970157352143" y="485.7618014107434"/>
      <point x="148.32609875203474" y="480.7618014107434"/>
      <point x="154.32609875203474" y="480.7618014107434" type="curve" smooth="yes"/>
      <point x="195.32609875203474" y="480.7618014107434"/>
      <point x="271.08790016277806" y="480.7618014107434"/>
      <point x="312.08790016277806" y="480.7618014107434" type="curve"/>
      <point x="321.2295170916983" y="516.7618014107434"/>
      <point x="318.968598807891" y="526.0"/>
      <point x="315.968598807891" y="526.0" type="curve" smooth="yes"/>
      <point x="266.968598807891" y="526.0"/>
      <point x="203.753119913185" y="526.0"/>
    </contour>
    <contour>
      <point x="202.53052972244237" y="24.0" type="curve"/>
      <point x="306.10569344129306" y="432.0" type="line" smooth="yes"/>
      <point x="315.2446784753093" y="468.0"/>
      <point x="326.968598807891" y="526.0"/>
      <point x="315.968598807891" y="526.0" type="curve" smooth="yes"/>
      <point x="308.968598807891" y="526.0"/>
      <point x="285.44543463555493" y="520.0"/>
      <point x="277.4299918539976" y="516.0" type="curve"/>
      <point x="155.06913667633577" y="34.0" type="line" smooth="yes"/>
      <point x="153.2921118086104" y="27.0"/>
      <point x="158.53052972244237" y="24.0"/>
    </contour>
    <contour>
      <point x="22.864894194248514" y="45.23819858925665" type="line"/>
      <point x="19.817688551275097" y="33.31759811900886"/>
      <point x="17.19204879525659" y="22.666666666666664"/>
      <point x="14.230340682380955" y="11.0" type="curve" smooth="yes"/>
      <point x="13.468758596212936" y="8.0"/>
      <point x="13.707176510044917" y="5.0"/>
      <point x="15.199455119266233" y="3.0" type="curve" smooth="yes"/>
      <point x="16.691733728487563" y="1.0"/>
      <point x="19.437873033098214" y="0.0"/>
      <point x="22.437873033098214" y="0.0" type="curve"/>
      <point x="421.4378730330982" y="0.0" type="line"/>
      <point x="424.4850786760716" y="11.920600470247784"/>
      <point x="427.53228431904506" y="22.317598119008863"/>
      <point x="430.57948996201844" y="34.23819858925665" type="curve" smooth="yes"/>
      <point x="432.1030927835052" y="40.23819858925665"/>
      <point x="427.8648941942485" y="45.23819858925665"/>
      <point x="421.8648941942485" y="45.23819858925665" type="curve"/>
    </contour>
    <contour>
      <point x="261.4248507867607" y="328.95496473141617" type="curve"/>
      <point x="390.5170916983179" y="457.9055887140532"/>
      <point x="450.32609875203474" y="481.0"/>
      <point x="517.3260987520347" y="481.0" type="curve" smooth="yes"/>
      <point x="538.3260987520347" y="481.0"/>
      <point x="558.3260987520347" y="481.0"/>
      <point x="577.3260987520347" y="481.0" type="curve"/>
      <point x="583.3260987520347" y="481.0" type="line"/>
      <point x="587.1351058057514" y="494.0"/>
      <point x="590.1823114487249" y="507.0"/>
      <point x="593.2295170916983" y="520.0" type="curve"/>
      <point x="595.5149213239283" y="527.0"/>
      <point x="592.2767227346717" y="531.0"/>
      <point x="585.2767227346717" y="531.0" type="curve" smooth="yes"/>
      <point x="536.2767227346717" y="531.0" type="line" smooth="yes"/>
      <point x="442.8969072164948" y="531.0"/>
      <point x="373.32609875203474" y="496.42919153553987"/>
      <point x="296.8990775908844" y="416.0965816603364" type="curve" smooth="yes"/>
      <point x="274.09007053716766" y="391.81117742810636"/>
      <point x="263.99565925122084" y="362.049376017363"/>
    </contour>
  </outline>
</glyph>
<glyph name="s" format="1">
  <advance width="600.0"/>
  <unicode hex="0073"/>
  <outline>
    <contour>
      <point x="384.18231144872493" y="534.0" type="curve" smooth="yes"/>
      <point x="378.03852414541507" y="534.0" type="line" smooth="yes"/>
      <point x="243.32392837764513" y="534.0"/>
      <point x="163.65870862723818" y="488.2602233040129"/>
      <point x="140.8046663049376" y="403.950623982637" type="curve" smooth="yes"/>
      <point x="130.13944655453065" y="363.9449525876547"/>
      <point x="162.3776451437873" y="360.66521975040695"/>
      <point x="179.3776451437873" y="360.66521975040695" type="curve"/>
      <point x="183.9484536082474" y="379.66521975040695"/>
      <point x="186.99565925122084" y="390.66521975040695"/>
      <point x="190.04286489419425" y="402.66521975040695" type="curve" smooth="yes"/>
      <point x="204.51709169831796" y="460.66521975040695"/>
      <point x="274.6115029842648" y="488.5236028214867"/>
      <point x="370.5757530784854" y="488.5236028214867" type="curve" smooth="yes"/>
      <point x="435.5170916983179" y="488.5236028214867"/>
      <point x="475.03714612459197" y="478.5236028214867"/>
      <point x="517.1983501306372" y="455.5236028214867" type="curve"/>
      <point x="529.1983501306372" y="455.5236028214867" type="line"/>
      <point x="532.4985391706986" y="468.52914232356244"/>
      <point x="533.802495930548" y="476.4236520334641"/>
      <point x="537.6115029842648" y="489.42919153553987" type="curve"/>
      <point x="538.3733043950082" y="492.42919153553987"/>
      <point x="538.3733043950082" y="494.42919153553987"/>
      <point x="536.1351058057514" y="497.42919153553987" type="curve" smooth="yes"/>
      <point x="529.452741819912" y="506.39695975360945"/>
      <point x="465.94411285946825" y="534.0"/>
    </contour>
    <contour>
      <point x="359.9055887140532" y="282.0" type="curve" smooth="yes"/>
      <point x="273.80900705371675" y="304.4763971785133" type="line" smooth="yes"/>
      <point x="190.23602821486708" y="326.71459576776994"/>
      <point x="178.61584373304396" y="357.9034183396636"/>
      <point x="190.04286489419425" y="402.66521975040695" type="curve" smooth="yes"/>
      <point x="192.3282691264243" y="411.66521975040695"/>
      <point x="196.13727618014107" y="428.66521975040695"/>
      <point x="201.46988605534455" y="447.66521975040695" type="curve"/>
      <point x="174.46988605534455" y="447.66521975040695"/>
      <point x="146.13727618014107" y="425.0617833242901"/>
      <point x="140.8046663049376" y="403.950623982637" type="curve"/>
      <point x="123.28323385784047" y="334.36595471809795"/>
      <point x="155.5214324470971" y="287.2381985892566"/>
      <point x="249.8562126966902" y="261.7618014107434" type="curve" smooth="yes"/>
      <point x="333.95279435702656" y="239.52360282148672" type="line" smooth="yes"/>
      <point x="419.2875746066196" y="216.80900705371675"/>
      <point x="432.1459576776994" y="181.85838307107977"/>
      <point x="419.1953336950624" y="132.0965816603364" type="curve" smooth="yes"/>
      <point x="415.38632664134565" y="117.09658166033641"/>
      <point x="414.6245252306023" y="112.09658166033641"/>
      <point x="411.5773195876289" y="100.09658166033641" type="curve"/>
      <point x="446.5773195876289" y="100.09658166033641"/>
      <point x="464.6245252306023" y="114.00217037438958"/>
      <point x="467.6717308735757" y="126.00217037438958" type="curve" smooth="yes"/>
      <point x="486.71676614215954" y="199.28757460661964"/>
      <point x="460.7639717851329" y="256.5236028214867"/>
    </contour>
    <contour>
      <point x="235.67390124796526" y="37.476397178513295" type="curve" smooth="yes"/>
      <point x="146.53011394465545" y="37.476397178513295"/>
      <point x="100.24470971242539" y="51.14378730330982"/>
      <point x="52.053716766142166" y="96.42919153553989" type="curve"/>
      <point x="40.053716766142166" y="96.42919153553989" type="line"/>
      <point x="37.7683125339121" y="87.42919153553989"/>
      <point x="36.2447097124254" y="78.57080846446011"/>
      <point x="31.673901247965276" y="61.57080846446012" type="curve" smooth="yes"/>
      <point x="30.912099837221923" y="57.57080846446012"/>
      <point x="31.15029842647857" y="55.57080846446012"/>
      <point x="32.38849701573522" y="53.57080846446012" type="curve" smooth="yes"/>
      <point x="52.53228431904504" y="26.570808464460118"/>
      <point x="118.53228431904503" y="-8.0"/>
      <point x="223.8176885512751" y="-8.0" type="curve" smooth="yes"/>
      <point x="228.05588714053175" y="-8.0" type="line" smooth="yes"/>
      <point x="366.15029842647857" y="-8.0"/>
      <point x="444.81768855127507" y="33.76397178513294"/>
      <point x="467.6717308735757" y="126.00217037438958" type="curve" smooth="yes"/>
      <point x="472.24253933803584" y="144.00217037438958"/>
      <point x="458.6223548562127" y="175.0965816603364"/>
      <point x="430.6223548562127" y="175.0965816603364" type="curve"/>
      <point x="426.0515463917526" y="158.0965816603364"/>
      <point x="423.76614215952253" y="149.0965816603364"/>
      <point x="419.1953336950624" y="132.0965816603364" type="curve" smooth="yes"/>
      <point x="403.9593054801953" y="70.09658166033641"/>
      <point x="345.57948996201844" y="37.476397178513295"/>
    </contour>
  </outline>
</glyph>
<glyph name="w" format="1">
  <advance width="600.0"/>
  <unicode hex="0077"/>
  <outline>
    <contour>
      <point x="113.96859880789097" y="526.0" type="curve"/>
      <point x="96.55841989631386" y="355.0"/>
      <point x="79.8943802893474" y="183.0"/>
      <point x="62.230340682380955" y="11.0" type="curve" smooth="yes"/>
      <point x="61.19945511926623" y="3.0"/>
      <point x="65.43787303309821" y="0.0"/>
      <point x="72.43787303309821" y="0.0" type="curve" smooth="yes"/>
      <point x="90.43787303309821" y="0.0" type="line" smooth="yes"/>
      <point x="98.54358442048645" y="0.0"/>
      <point x="107.44861578742375" y="10.053713771627628"/>
      <point x="109.24688008681498" y="25.0" type="curve" smooth="yes"/>
      <point x="127.1459576776994" y="189.0"/>
      <point x="145.04503526858383" y="353.0"/>
      <point x="162.1823114487249" y="516.0" type="curve"/>
      <point x="162.70591427021162" y="521.0"/>
      <point x="161.70591427021162" y="523.0"/>
      <point x="161.46771568095497" y="524.0" type="curve" smooth="yes"/>
      <point x="160.46771568095497" y="525.0"/>
      <point x="158.46771568095497" y="526.0"/>
      <point x="155.46771568095497" y="526.0" type="curve"/>
      <point x="141.25187171463722" y="526.0"/>
      <point x="128.18444277420872" y="526.0"/>
    </contour>
    <contour>
      <point x="347.58252926895693" y="426.0" type="curve" smooth="yes"/>
      <point x="310.3282691264243" y="426.0" type="line"/>
      <point x="240.80900705371675" y="294.0"/>
      <point x="169.52794357026588" y="160.0"/>
      <point x="99.00868149755834" y="26.0" type="curve"/>
      <point x="90.43787303309821" y="10.0"/>
      <point x="87.67607162235487" y="6.0"/>
      <point x="81.15246880086815" y="0.0" type="curve"/>
      <point x="137.4378730330982" y="0.0" type="line"/>
      <point x="207.96292760604842" y="136.0"/>
      <point x="279.2341214836093" y="271.0"/>
      <point x="349.5053153611702" y="406.0" type="curve" smooth="yes"/>
      <point x="357.31322579201026" y="421.0"/>
      <point x="354.61367335865435" y="426.0"/>
    </contour>
    <contour>
      <point x="359.3282691264243" y="426.0" type="curve" smooth="yes"/>
      <point x="319.58252926895693" y="426.0" type="line"/>
      <point x="320.8036140006174" y="289.0"/>
      <point x="322.51697734149917" y="150.0"/>
      <point x="324.2303406823809" y="11.0" type="curve" smooth="yes"/>
      <point x="324.19945511926625" y="3.0"/>
      <point x="329.4378730330982" y="0.0"/>
      <point x="334.4378730330982" y="0.0" type="curve" smooth="yes"/>
      <point x="350.4378730330982" y="0.0" type="line" smooth="yes"/>
      <point x="358.58084644601195" y="0.0"/>
      <point x="370.4382681515066" y="10.005926776125854"/>
      <point x="370.246880086815" y="25.0" type="curve" smooth="yes"/>
      <point x="368.76614215952253" y="156.0"/>
      <point x="366.5236028214867" y="286.0"/>
      <point x="366.0428648941942" y="416.0" type="curve" smooth="yes"/>
      <point x="366.3282691264243" y="425.0"/>
      <point x="363.3282691264243" y="426.0"/>
    </contour>
    <contour>
      <point x="560.4677156809549" y="526.0" type="curve"/>
      <point x="494.5686380900705" y="360.0"/>
      <point x="427.90775908844273" y="192.0"/>
      <point x="361.0086814975583" y="26.0" type="curve"/>
      <point x="353.4378730330982" y="10.0"/>
      <point x="350.67607162235487" y="5.0"/>
      <point x="343.1524688008682" y="0.0" type="curve"/>
      <point x="400.4378730330982" y="0.0" type="line"/>
      <point x="470.59419124928604" y="170.0"/>
      <point x="540.7659522470311" y="344.0"/>
      <point x="609.9222704632189" y="514.0" type="curve"/>
      <point x="612.1915739401655" y="519.0"/>
      <point x="612.9531560263335" y="522.0"/>
      <point x="611.4608774171122" y="524.0" type="curve" smooth="yes"/>
      <point x="610.7147381125017" y="525.0"/>
      <point x="608.968598807891" y="526.0"/>
      <point x="604.968598807891" y="526.0" type="curve"/>
      <point x="590.2118935264812" y="526.0"/>
      <point x="575.2244209623648" y="526.0"/>
    </contour>
  </outline>
</glyph>
<glyph name="bar" format="1">
  <advance width="600"/>
  <unicode hex="007C"/>
  <outline>
    <contour>
      <point x="275" y="760" type="curve"/>
      <point x="275.0" y="727"/>
      <point x="275" y="694"/>
      <point x="275" y="661" type="curve" smooth="yes"/>
      <point x="275" y="-150" type="line" smooth="yes"/>
      <point x="275.0" y="-156.0"/>
      <point x="280.0" y="-161.0"/>
      <point x="286" y="-161" type="curve" smooth="yes"/>
      <point x="299.0" y="-161.0"/>
      <point x="312" y="-161.0"/>
      <point x="325" y="-161" type="curve"/>
      <point x="325" y="749" type="line" smooth="yes"/>
      <point x="325" y="752"/>
      <point x="324" y="755"/>
      <point x="322" y="757" type="curve" smooth="yes"/>
      <point x="320" y="759"/>
      <point x="317" y="760"/>
      <point x="314" y="760" type="curve" smooth="yes"/>
      <point x="301.0" y="760.0"/>
      <point x="288" y="760.0"/>
    </contour>
  </outline>
</glyph>
<glyph name="cent" format="1">
  <advance width="600"/>
  <unicode hex="00A2"/>
  <outline>
    <contour>
      <point x="349" y="404" type="line"/>
      <point x="375" y="754" type="line" smooth="yes"/>
      <point x="376" y="763"/>
      <point x="371" y="767"/>
      <point x="365" y="767" type="curve" smooth="yes"/>
      <point x="342" y="767"/>
      <point x="333" y="767"/>
      <point x="311" y="767" type="curve"/>
      <point x="311.0" y="739"/>
      <point x="311.0" y="711"/>
      <point x="311" y="683" type="curve"/>
      <point x="311" y="423" type="line" smooth="yes"/>
      <point x="311.0" y="415.0"/>
      <point x="315" y="411"/>
      <point x="321" y="410" type="curve" smooth="yes"/>
    </contour>
    <contour>
      <point x="311.0" y="298.0" type="line"/>
      <point x="285.0" y="-52.0" type="line" smooth="yes"/>
      <point x="284.0" y="-61.0"/>
      <point x="289.0" y="-65.0"/>
      <point x="295.0" y="-65.0" type="curve" smooth="yes"/>
      <point x="318.0" y="-65.0"/>
      <point x="327.0" y="-65.0"/>
      <point x="349.0" y="-65.0" type="curve"/>
      <point x="349.0" y="-37.0"/>
      <point x="349.0" y="-9.0"/>
      <point x="349.0" y="19.0" type="curve"/>
      <point x="349.0" y="279.0" type="line" smooth="yes"/>
      <point x="349.0" y="287.0"/>
      <point x="345.0" y="291.0"/>
      <point x="339.0" y="292.0" type="curve" smooth="yes"/>
    </contour>
    <component base="c" yOffset="89"/>
  </outline>
</glyph>
<glyph name="yen" format="1">
  <advance width="600"/>
  <unicode hex="00A5"/>
  <outline>
    <contour>
      <point x="56" y="450" type="line"/>
      <point x="56.0" y="439.3333333333333"/>
      <point x="56.0" y="428.6666666666667"/>
      <point x="56" y="418" type="curve" smooth="yes"/>
      <point x="56" y="415"/>
      <point x="57" y="412"/>
      <point x="59" y="410" type="curve" smooth="yes"/>
      <point x="61" y="408"/>
      <point x="64" y="407"/>
      <point x="67" y="407" type="curve"/>
      <point x="224" y="407" type="line"/>
      <point x="224.0" y="417.6666666666667"/>
      <point x="224.0" y="428.3333333333333"/>
      <point x="224" y="439" type="curve" smooth="yes"/>
      <point x="224.0" y="445.0"/>
      <point x="219.0" y="450.0"/>
      <point x="213" y="450" type="curve"/>
    </contour>
    <contour>
      <point x="376" y="450" type="line"/>
      <point x="376.0" y="439.3333333333333"/>
      <point x="376.0" y="428.6666666666667"/>
      <point x="376" y="418" type="curve" smooth="yes"/>
      <point x="376.0" y="412.0"/>
      <point x="381.0" y="407.0"/>
      <point x="387" y="407" type="curve"/>
      <point x="544" y="407" type="line"/>
      <point x="544.0" y="417.6666666666667"/>
      <point x="544.0" y="428.3333333333333"/>
      <point x="544" y="439" type="curve" smooth="yes"/>
      <point x="544.0" y="445.0"/>
      <point x="539.0" y="450.0"/>
      <point x="533" y="450" type="curve"/>
    </contour>
    <contour>
      <point x="544.0" y="157.0" type="line"/>
      <point x="544.0" y="167.66666666666666"/>
      <point x="544.0" y="178.33333333333334"/>
      <point x="544.0" y="189.0" type="curve" smooth="yes"/>
      <point x="544.0" y="192.0"/>
      <point x="543.0" y="195.0"/>
      <point x="541.0" y="197.0" type="curve" smooth="yes"/>
      <point x="539.0" y="199.0"/>
      <point x="536.0" y="200.0"/>
      <point x="533.0" y="200.0" type="curve"/>
      <point x="56.0" y="200.0" type="line"/>
      <point x="56.0" y="189.33333333333334"/>
      <point x="56.0" y="178.66666666666666"/>
      <point x="56.0" y="168.0" type="curve" smooth="yes"/>
      <point x="56.0" y="162.0"/>
      <point x="61.0" y="157.0"/>
      <point x="67.0" y="157.0" type="curve"/>
    </contour>
    <component base="Y"/>
  </outline>
</glyph>
<glyph name="paragraph" format="1">
  <advance width="600"/>
  <unicode hex="00B6"/>
  <outline>
    <contour>
      <point x="360" y="-150" type="curve"/>
      <point x="360" y="659" type="line"/>
      <point x="360" y="665"/>
      <point x="355" y="670"/>
      <point x="349" y="670" type="curve" smooth="yes"/>
      <point x="336" y="670"/>
      <point x="323" y="670"/>
      <point x="310" y="670" type="curve"/>
      <point x="310" y="-139" type="line" smooth="yes"/>
      <point x="310" y="-146"/>
      <point x="314" y="-150"/>
      <point x="321" y="-150" type="curve" smooth="yes"/>
      <point x="334" y="-150"/>
      <point x="347" y="-150"/>
    </contour>
    <contour>
      <point x="510" y="-150" type="curve"/>
      <point x="510" y="-118"/>
      <point x="510" y="-80"/>
      <point x="510" y="-40" type="curve" smooth="yes"/>
      <point x="510" y="659" type="line" smooth="yes"/>
      <point x="510" y="665"/>
      <point x="505" y="670"/>
      <point x="499" y="670" type="curve" smooth="yes"/>
      <point x="485" y="670"/>
      <point x="473" y="670"/>
      <point x="460" y="670" type="curve"/>
      <point x="460" y="-139" type="line" smooth="yes"/>
      <point x="460" y="-146"/>
      <point x="464" y="-150"/>
      <point x="471" y="-150" type="curve" smooth="yes"/>
      <point x="484" y="-150"/>
      <point x="496" y="-150"/>
    </contour>
    <contour>
      <point x="275" y="700.0" type="line" smooth="yes"/>
      <point x="128.0" y="700.0"/>
      <point x="71.0" y="605.0"/>
      <point x="71" y="485" type="curve" smooth="yes"/>
      <point x="71" y="400" type="line" smooth="yes"/>
      <point x="71" y="284"/>
      <point x="121" y="200.0"/>
      <point x="260" y="200.0" type="curve" smooth="yes"/>
      <point x="331" y="200.0" type="line" smooth="yes"/>
      <point x="337" y="200"/>
      <point x="339.0" y="215"/>
      <point x="339" y="247" type="curve"/>
      <point x="273" y="247" type="line" smooth="yes"/>
      <point x="164.0" y="247.0"/>
      <point x="121" y="285"/>
      <point x="121.0" y="400" type="curve" smooth="yes"/>
      <point x="121.0" y="485" type="line" smooth="yes"/>
      <point x="121.0" y="599.0"/>
      <point x="171.0" y="653.0"/>
      <point x="289" y="653.0" type="curve" smooth="yes"/>
      <point x="387" y="653"/>
      <point x="490" y="653.0"/>
      <point x="552" y="653" type="curve"/>
      <point x="563" y="653" type="line"/>
      <point x="563" y="665"/>
      <point x="563" y="677"/>
      <point x="563" y="689" type="curve" smooth="yes"/>
      <point x="563" y="692"/>
      <point x="562" y="695"/>
      <point x="560" y="697" type="curve" smooth="yes"/>
      <point x="558" y="699"/>
      <point x="555" y="700"/>
      <point x="552" y="700" type="curve" smooth="yes"/>
    </contour>
  </outline>
</glyph>
<glyph name="onehalf" format="1">
  <advance width="600"/>
  <unicode hex="00BD"/>
  <outline>
    <contour>
      <point x="216" y="391" type="curve"/>
      <point x="216.0" y="494"/>
      <point x="216" y="597"/>
      <point x="216" y="699" type="curve" smooth="yes"/>
      <point x="216" y="706"/>
      <point x="212" y="710.0"/>
      <point x="205" y="710" type="curve" smooth="yes"/>
      <point x="166" y="710" type="line"/>
      <point x="166.0" y="609"/>
      <point x="166.0" y="506.0"/>
      <point x="166" y="404" type="curve" smooth="yes"/>
      <point x="166.0" y="395"/>
      <point x="179.0" y="391.0"/>
    </contour>
    <contour>
      <point x="46" y="416" type="line"/>
      <point x="46.0" y="406"/>
      <point x="46" y="394"/>
      <point x="46.0" y="377" type="curve" smooth="yes"/>
      <point x="46.0" y="369"/>
      <point x="50.0" y="366.0"/>
      <point x="57" y="366.0" type="curve" smooth="yes"/>
      <point x="304" y="366" type="line"/>
      <point x="304.0" y="376"/>
      <point x="304" y="395"/>
      <point x="304" y="405" type="curve" smooth="yes"/>
      <point x="304.0" y="412"/>
      <point x="300" y="416"/>
      <point x="293" y="416" type="curve" smooth="yes"/>
    </contour>
    <contour>
      <point x="64" y="556" type="curve" smooth="yes"/>
      <point x="70" y="556.0"/>
      <point x="75" y="558"/>
      <point x="172" y="665" type="curve" smooth="yes"/>
      <point x="205" y="705"/>
      <point x="182.0" y="710.0"/>
      <point x="173" y="710" type="curve"/>
      <point x="147" y="710" type="line"/>
      <point x="117" y="676"/>
      <point x="88" y="646"/>
      <point x="58" y="613" type="curve"/>
      <point x="58" y="562" type="line" smooth="yes"/>
      <point x="58" y="558"/>
      <point x="60" y="556"/>
    </contour>
    <contour>
      <point x="428" y="291.0" type="curve" smooth="yes"/>
      <point x="491.0" y="291.0"/>
      <point x="506.0" y="273.0"/>
      <point x="506" y="248" type="curve"/>
      <point x="553.0" y="248.0"/>
      <point x="556.0" y="249"/>
      <point x="556" y="254" type="curve" smooth="yes"/>
      <point x="556.0" y="303"/>
      <point x="510" y="341.0"/>
      <point x="426" y="341.0" type="curve" smooth="yes"/>
      <point x="369.0" y="341.0"/>
      <point x="325" y="324"/>
      <point x="310" y="309" type="curve" smooth="yes"/>
      <point x="305" y="304"/>
      <point x="305.0" y="301"/>
      <point x="305" y="295" type="curve" smooth="yes"/>
      <point x="305.0" y="280"/>
      <point x="305.0" y="273"/>
      <point x="305" y="261" type="curve"/>
      <point x="317" y="261" type="line"/>
      <point x="349" y="281"/>
      <point x="379" y="291"/>
    </contour>
    <contour>
      <point x="506" y="295" type="curve"/>
      <point x="506" y="281"/>
      <point x="506" y="265"/>
      <point x="506.0" y="248" type="curve" smooth="yes"/>
      <point x="506.0" y="220"/>
      <point x="497" y="212"/>
      <point x="425" y="182" type="curve" smooth="yes"/>
      <point x="313" y="136"/>
      <point x="295.0" y="98"/>
      <point x="295" y="42" type="curve" smooth="yes"/>
      <point x="295.0" y="25"/>
      <point x="301.0" y="27.0"/>
      <point x="342" y="27" type="curve"/>
      <point x="342" y="85"/>
      <point x="349" y="96"/>
      <point x="443" y="138" type="curve" smooth="yes"/>
      <point x="530" y="175"/>
      <point x="556" y="197"/>
      <point x="556" y="245" type="curve" smooth="yes"/>
      <point x="556" y="254" type="line" smooth="yes"/>
      <point x="556" y="278"/>
      <point x="542.0" y="295.0"/>
    </contour>
    <contour>
      <point x="560" y="0" type="line"/>
      <point x="560" y="13"/>
      <point x="560.0" y="23.0"/>
      <point x="560" y="36" type="curve" smooth="yes"/>
      <point x="560.0" y="43"/>
      <point x="556.0" y="47.0"/>
      <point x="549" y="47" type="curve" smooth="yes"/>
      <point x="342" y="47" type="line" smooth="yes"/>
      <point x="328" y="47"/>
      <point x="313" y="45"/>
      <point x="295" y="42" type="curve"/>
      <point x="295.0" y="32"/>
      <point x="295.0" y="21"/>
      <point x="295" y="11" type="curve" smooth="yes"/>
      <point x="295" y="4"/>
      <point x="299" y="0"/>
      <point x="306" y="0" type="curve" smooth="yes"/>
    </contour>
    <component base="fraction"/>
  </outline>
</glyph>
<glyph name="threequarters" format="1">
  <advance width="600"/>
  <unicode hex="00BE"/>
  <outline>
    <contour>
      <point x="190" y="661.0" type="curve" smooth="yes"/>
      <point x="237.0" y="661.0"/>
      <point x="267.0" y="646"/>
      <point x="267" y="618" type="curve" smooth="yes"/>
      <point x="267.0" y="611"/>
      <point x="267.0" y="606"/>
      <point x="267" y="602" type="curve"/>
      <point x="307" y="602"/>
      <point x="317.0" y="611.0"/>
      <point x="317" y="617" type="curve" smooth="yes"/>
      <point x="317" y="626" type="line" smooth="yes"/>
      <point x="317" y="673"/>
      <point x="271.0" y="711.0"/>
      <point x="188" y="711.0" type="curve"/>
      <point x="131.0" y="711.0"/>
      <point x="87" y="694"/>
      <point x="72" y="679" type="curve" smooth="yes"/>
      <point x="67" y="674"/>
      <point x="67.0" y="671"/>
      <point x="67" y="665" type="curve" smooth="yes"/>
      <point x="67.0" y="650"/>
      <point x="67.0" y="643"/>
      <point x="67" y="631" type="curve"/>
      <point x="79" y="631" type="line"/>
      <point x="111" y="651"/>
      <point x="141.0" y="661.0"/>
    </contour>
    <contour>
      <point x="147" y="528" type="curve" smooth="yes"/>
      <point x="275.0" y="528.0"/>
      <point x="317.0" y="564.0"/>
      <point x="317" y="617" type="curve" smooth="yes"/>
      <point x="317" y="641"/>
      <point x="286.0" y="654.0"/>
      <point x="267" y="654" type="curve"/>
      <point x="267.0" y="645"/>
      <point x="267.0" y="635"/>
      <point x="267.0" y="618" type="curve" smooth="yes"/>
      <point x="267.0" y="581"/>
      <point x="243.0" y="561.0"/>
      <point x="136" y="561" type="curve"/>
      <point x="136" y="555"/>
      <point x="136" y="548"/>
      <point x="136" y="539" type="curve" smooth="yes"/>
      <point x="136" y="532"/>
      <point x="140" y="528"/>
    </contour>
    <contour>
      <point x="147" y="514.0" type="curve" smooth="yes"/>
      <point x="240" y="514.0"/>
      <point x="272.0" y="493"/>
      <point x="272.0" y="458" type="curve" smooth="yes"/>
      <point x="272.0" y="447"/>
      <point x="272.0" y="440"/>
      <point x="272" y="431" type="curve"/>
      <point x="307" y="431.0"/>
      <point x="322.0" y="445.0"/>
      <point x="322" y="459" type="curve" smooth="yes"/>
      <point x="322.0" y="533"/>
      <point x="239.0" y="550.0"/>
      <point x="136" y="550" type="curve"/>
      <point x="136.0" y="546"/>
      <point x="136.0" y="537"/>
      <point x="136" y="525" type="curve" smooth="yes"/>
      <point x="136.0" y="518.0"/>
      <point x="140" y="514"/>
    </contour>
    <contour>
      <point x="190" y="407.0" type="curve" smooth="yes"/>
      <point x="141" y="407.0"/>
      <point x="110" y="414"/>
      <point x="71" y="442" type="curve"/>
      <point x="59" y="442" type="line"/>
      <point x="59.0" y="430"/>
      <point x="59.0" y="419"/>
      <point x="59.0" y="405" type="curve" smooth="yes"/>
      <point x="59.0" y="398"/>
      <point x="61" y="395"/>
      <point x="65" y="391" type="curve" smooth="yes"/>
      <point x="82" y="375"/>
      <point x="130" y="357.0"/>
      <point x="188" y="357" type="curve" smooth="yes"/>
      <point x="275.0" y="357.0"/>
      <point x="322" y="401.0"/>
      <point x="322" y="451" type="curve" smooth="yes"/>
      <point x="322" y="459" type="line" smooth="yes"/>
      <point x="322" y="482"/>
      <point x="296.0" y="477.0"/>
      <point x="272" y="477" type="curve"/>
      <point x="272" y="472"/>
      <point x="272" y="466"/>
      <point x="272.0" y="458" type="curve" smooth="yes"/>
      <point x="272.0" y="423"/>
      <point x="240.0" y="407.0"/>
    </contour>
    <contour>
      <point x="284" y="106" type="curve"/>
      <point x="333" y="182"/>
      <point x="382" y="258"/>
      <point x="432" y="335" type="curve"/>
      <point x="432" y="342" type="line"/>
      <point x="420" y="342.0"/>
      <point x="402" y="342"/>
      <point x="388" y="342.0" type="curve" smooth="yes"/>
      <point x="383" y="342.0"/>
      <point x="379" y="341"/>
      <point x="374" y="334" type="curve" smooth="yes"/>
      <point x="353" y="302"/>
      <point x="234.0" y="119"/>
      <point x="234" y="117" type="curve" smooth="yes"/>
      <point x="234.0" y="111.0"/>
      <point x="264" y="106.0"/>
    </contour>
    <contour>
      <point x="560" y="78" type="line"/>
      <point x="560.0" y="89"/>
      <point x="560" y="103"/>
      <point x="560" y="114" type="curve" smooth="yes"/>
      <point x="560" y="121"/>
      <point x="556" y="125"/>
      <point x="549" y="125" type="curve" smooth="yes"/>
      <point x="295" y="125" type="line" smooth="yes"/>
      <point x="265" y="125"/>
      <point x="247" y="122"/>
      <point x="234" y="117" type="curve"/>
      <point x="234" y="89" type="line" smooth="yes"/>
      <point x="234.0" y="83"/>
      <point x="238" y="78"/>
      <point x="245" y="78" type="curve" smooth="yes"/>
    </contour>
    <contour>
      <point x="503" y="0" type="curve"/>
      <point x="503" y="21"/>
      <point x="503" y="32"/>
      <point x="503" y="52" type="curve" smooth="yes"/>
      <point x="503" y="216" type="line" smooth="yes"/>
      <point x="503.0" y="223.0"/>
      <point x="500" y="227"/>
      <point x="492" y="227" type="curve" smooth="yes"/>
      <point x="453" y="227" type="line"/>
      <point x="453.0" y="184.0"/>
      <point x="453.0" y="150.0"/>
      <point x="453" y="121" type="curve" smooth="yes"/>
      <point x="453" y="11" type="line" smooth="yes"/>
      <point x="453" y="3"/>
      <point x="457" y="0.0"/>
      <point x="464" y="0" type="curve" smooth="yes"/>
      <point x="477.0" y="0.0"/>
      <point x="490" y="0.0"/>
    </contour>
    <component base="fraction"/>
  </outline>
</glyph>
<glyph name="Eth" format="1">
  <advance width="600"/>
  <unicode hex="00D0"/>
  <outline>
    <contour>
      <point x="26" y="380" type="line"/>
      <point x="26.0" y="369"/>
      <point x="26.0" y="359"/>
      <point x="26" y="348" type="curve" smooth="yes"/>
      <point x="26.0" y="341.0"/>
      <point x="30" y="337"/>
      <point x="37" y="337" type="curve" smooth="yes"/>
      <point x="374" y="337" type="line"/>
      <point x="374.0" y="348"/>
      <point x="374.0" y="358"/>
      <point x="374" y="369" type="curve" smooth="yes"/>
      <point x="374.0" y="375.0"/>
      <point x="369.0" y="380.0"/>
      <point x="363" y="380" type="curve"/>
    </contour>
    <component base="D"/>
  </outline>
</glyph>
<glyph name="Thorn" format="1">
  <advance width="600"/>
  <unicode hex="00DE"/>
  <outline>
    <contour>
      <point x="82" y="700" type="curve"/>
      <point x="82.0" y="667"/>
      <point x="82.0" y="634.0"/>
      <point x="82" y="601" type="curve" smooth="yes"/>
      <point x="82" y="11" type="line" smooth="yes"/>
      <point x="82.0" y="5.0"/>
      <point x="87.0" y="0.0"/>
      <point x="93" y="0" type="curve" smooth="yes"/>
      <point x="106.0" y="0.0"/>
      <point x="119" y="0.0"/>
      <point x="132" y="0" type="curve"/>
      <point x="132" y="689" type="line" smooth="yes"/>
      <point x="132.0" y="692.0"/>
      <point x="131" y="695"/>
      <point x="129" y="697" type="curve" smooth="yes"/>
      <point x="127" y="699"/>
      <point x="124" y="700"/>
      <point x="121" y="700" type="curve" smooth="yes"/>
      <point x="108.0" y="700.0"/>
      <point x="95" y="700.0"/>
    </contour>
    <contour>
      <point x="110" y="566" type="curve"/>
      <point x="110" y="553"/>
      <point x="110" y="543"/>
      <point x="110" y="530" type="curve"/>
      <point x="110" y="527"/>
      <point x="111" y="524"/>
      <point x="113" y="522" type="curve" smooth="yes"/>
      <point x="115" y="520"/>
      <point x="118" y="519"/>
      <point x="121" y="519" type="curve" smooth="yes"/>
      <point x="138" y="519"/>
      <point x="159" y="519"/>
      <point x="185" y="519" type="curve" smooth="yes"/>
      <point x="215" y="519.0"/>
      <point x="280" y="519.0"/>
      <point x="310" y="519" type="curve" smooth="yes"/>
      <point x="364" y="519"/>
      <point x="371" y="519"/>
      <point x="398" y="519" type="curve"/>
      <point x="398.0" y="545.0"/>
      <point x="379" y="566.0"/>
      <point x="312" y="566" type="curve" smooth="yes"/>
      <point x="258" y="566.0"/>
      <point x="181" y="566.0"/>
    </contour>
    <contour>
      <point x="535" y="317" type="curve" smooth="yes"/>
      <point x="535" y="385" type="line" smooth="yes"/>
      <point x="535" y="538.0"/>
      <point x="423" y="566.0"/>
      <point x="312" y="566" type="curve"/>
      <point x="312.0" y="566.0"/>
      <point x="294" y="552"/>
      <point x="310" y="519" type="curve"/>
      <point x="430" y="519.0"/>
      <point x="483" y="479.0"/>
      <point x="483" y="390" type="curve" smooth="yes"/>
      <point x="483" y="321" type="line" smooth="yes"/>
      <point x="483" y="230"/>
      <point x="427" y="181.0"/>
      <point x="315" y="181" type="curve" smooth="yes"/>
      <point x="247" y="181.0"/>
      <point x="173" y="181.0"/>
      <point x="110" y="181" type="curve"/>
      <point x="110.0" y="166.0"/>
      <point x="110.0" y="159.0"/>
      <point x="110" y="145" type="curve" smooth="yes"/>
      <point x="110" y="139"/>
      <point x="115.0" y="134.0"/>
      <point x="121" y="134" type="curve" smooth="yes"/>
      <point x="318" y="134" type="line" smooth="yes"/>
      <point x="454" y="134"/>
      <point x="535" y="202"/>
    </contour>
  </outline>
</glyph>
<glyph name="eth" format="1">
  <advance width="600"/>
  <unicode hex="00F0"/>
  <outline>
    <contour>
      <point x="277" y="516" type="curve" smooth="yes"/>
      <point x="172.0" y="516.0"/>
      <point x="85" y="432.0"/>
      <point x="85" y="308" type="curve" smooth="yes"/>
      <point x="85" y="198" type="line" smooth="yes"/>
      <point x="85" y="78"/>
      <point x="169" y="-10"/>
      <point x="300" y="-10" type="curve" smooth="yes"/>
      <point x="315" y="-10"/>
      <point x="317" y="8"/>
      <point x="291" y="38" type="curve"/>
      <point x="192.0" y="38"/>
      <point x="135" y="108.0"/>
      <point x="135" y="205" type="curve" smooth="yes"/>
      <point x="135" y="308" type="line" smooth="yes"/>
      <point x="135" y="395.0"/>
      <point x="187.0" y="468.0"/>
      <point x="286" y="468" type="curve" smooth="yes"/>
      <point x="365.0" y="468.0"/>
      <point x="434" y="427"/>
      <point x="476" y="360" type="curve"/>
      <point x="479" y="363"/>
      <point x="481" y="367"/>
      <point x="481" y="372" type="curve" smooth="yes"/>
      <point x="481.0" y="431.0"/>
      <point x="401.0" y="516.0"/>
    </contour>
    <contour>
      <point x="300" y="-10" type="curve" smooth="yes"/>
      <point x="418" y="-10"/>
      <point x="515" y="78"/>
      <point x="515" y="207" type="curve" smooth="yes"/>
      <point x="515" y="308" type="line" smooth="yes"/>
      <point x="515.0" y="466.0"/>
      <point x="500" y="530"/>
      <point x="278" y="752" type="curve"/>
      <point x="271" y="759"/>
      <point x="266" y="760"/>
      <point x="258" y="760" type="curve"/>
      <point x="244" y="760.0"/>
      <point x="231" y="760.0"/>
      <point x="217" y="760" type="curve"/>
      <point x="217" y="748" type="line"/>
      <point x="452.0" y="513.0"/>
      <point x="465.0" y="474.0"/>
      <point x="465" y="308" type="curve" smooth="yes"/>
      <point x="465" y="207" type="line" smooth="yes"/>
      <point x="465.0" y="117.0"/>
      <point x="411.0" y="38.0"/>
      <point x="291" y="38" type="curve" smooth="yes"/>
      <point x="267" y="38"/>
      <point x="246" y="38.0"/>
      <point x="226" y="38" type="curve"/>
      <point x="226.0" y="6.0"/>
      <point x="269.0" y="-10"/>
    </contour>
    <contour>
      <point x="522" y="720" type="curve"/>
      <point x="344" y="670" type="line" smooth="yes"/>
      <point x="334" y="667"/>
      <point x="324" y="670"/>
      <point x="316" y="668" type="curve" smooth="yes"/>
      <point x="131" y="618" type="line" smooth="yes"/>
      <point x="120" y="615"/>
      <point x="117" y="612"/>
      <point x="117" y="600" type="curve" smooth="yes"/>
      <point x="117.0" y="590.0"/>
      <point x="117" y="581"/>
      <point x="117" y="571" type="curve"/>
      <point x="345" y="633" type="line" smooth="yes"/>
      <point x="352" y="635"/>
      <point x="364" y="633"/>
      <point x="373" y="635" type="curve" smooth="yes"/>
      <point x="509" y="672" type="line" smooth="yes"/>
      <point x="520" y="675"/>
      <point x="522" y="680"/>
      <point x="522" y="690" type="curve" smooth="yes"/>
      <point x="522.0" y="700.0"/>
      <point x="522" y="710"/>
    </contour>
  </outline>
</glyph>
<glyph name="ij" format="1">
  <advance width="600"/>
  <unicode hex="0133"/>
  <outline>
    <contour>
      <point x="174" y="676" type="curve"/>
      <point x="174" y="745" type="line" smooth="yes"/>
      <point x="174" y="751"/>
      <point x="169" y="756"/>
      <point x="163" y="756" type="curve" smooth="yes"/>
      <point x="140" y="756"/>
      <point x="117" y="756"/>
      <point x="94" y="756" type="curve"/>
      <point x="94" y="687" type="line" smooth="yes"/>
      <point x="94" y="681"/>
      <point x="99" y="676"/>
      <point x="105" y="676" type="curve" smooth="yes"/>
      <point x="128" y="676"/>
      <point x="151" y="676"/>
    </contour>
    <contour>
      <point x="502" y="676" type="curve"/>
      <point x="502" y="745" type="line" smooth="yes"/>
      <point x="502" y="751"/>
      <point x="497" y="756"/>
      <point x="491" y="756" type="curve" smooth="yes"/>
      <point x="468" y="756"/>
      <point x="445" y="756"/>
      <point x="422" y="756" type="curve"/>
      <point x="422" y="687" type="line" smooth="yes"/>
      <point x="422" y="681"/>
      <point x="427" y="676"/>
      <point x="433" y="676" type="curve" smooth="yes"/>
      <point x="456" y="676"/>
      <point x="479" y="676"/>
    </contour>
    <component base="dotlessij"/>
  </outline>
</glyph>
<glyph name="lslash" format="1">
  <advance width="600"/>
  <unicode hex="0142"/>
  <outline>
    <contour>
      <point x="500" y="529" type="curve"/>
      <point x="322" y="434" type="line" smooth="yes"/>
      <point x="312" y="429"/>
      <point x="302" y="431"/>
      <point x="294" y="427" type="curve" smooth="yes"/>
      <point x="117" y="334" type="line" smooth="yes"/>
      <point x="109" y="330"/>
      <point x="109" y="326"/>
      <point x="109.0" y="315" type="curve" smooth="yes"/>
      <point x="109.0" y="280"/>
      <point x="109.0" y="290"/>
      <point x="109" y="279" type="curve"/>
      <point x="294" y="377" type="line" smooth="yes"/>
      <point x="301" y="381"/>
      <point x="313" y="379"/>
      <point x="322" y="384" type="curve" smooth="yes"/>
      <point x="491" y="474" type="line" smooth="yes"/>
      <point x="498" y="478"/>
      <point x="500" y="482"/>
      <point x="500.0" y="492" type="curve" smooth="yes"/>
      <point x="500.0" y="524"/>
      <point x="500.0" y="520"/>
    </contour>
    <component base="l"/>
  </outline>
</glyph>
<glyph name="Eng" format="1">
  <advance width="600"/>
  <unicode hex="014A"/>
  <outline>
    <contour>
      <point x="303" y="-203" type="curve" smooth="yes"/>
      <point x="250" y="-203"/>
      <point x="213" y="-193"/>
      <point x="179" y="-176" type="curve"/>
      <point x="167" y="-176" type="line"/>
      <point x="167.0" y="-188"/>
      <point x="167.0" y="-200"/>
      <point x="167" y="-212" type="curve" smooth="yes"/>
      <point x="167" y="-216"/>
      <point x="168" y="-218"/>
      <point x="170" y="-220" type="curve" smooth="yes"/>
      <point x="185" y="-235"/>
      <point x="240.0" y="-250.0"/>
      <point x="296" y="-250" type="curve" smooth="yes"/>
      <point x="444.3718592964824" y="-250.0"/>
      <point x="518.0" y="-158.33333333333331"/>
      <point x="518" y="0" type="curve"/>
      <point x="518" y="8"/>
      <point x="508" y="11"/>
      <point x="468" y="11" type="curve"/>
      <point x="468.0" y="-139.04597701149427"/>
      <point x="413.38732394366195" y="-203.0"/>
    </contour>
    <component base="N"/>
  </outline>
</glyph>
<glyph name="OE" format="1">
  <advance width="600"/>
  <unicode hex="0152"/>
  <outline>
    <contour>
      <point x="255" y="706" type="curve" smooth="yes"/>
      <point x="172" y="706"/>
      <point x="67" y="643.0"/>
      <point x="67" y="470" type="curve" smooth="yes"/>
      <point x="67" y="226" type="line" smooth="yes"/>
      <point x="67" y="64"/>
      <point x="158" y="-6"/>
      <point x="256" y="-6.0" type="curve" smooth="yes"/>
      <point x="317.0" y="-6.0"/>
      <point x="345.0" y="4.725000000000001"/>
      <point x="345" y="33" type="curve" smooth="yes"/>
      <point x="345.0" y="43.434782608695656"/>
      <point x="341.1269325170144" y="50.90480061223921"/>
      <point x="333" y="57" type="curve"/>
      <point x="313.80390862224795" y="48.91743520936756"/>
      <point x="300" y="41"/>
      <point x="271" y="41" type="curve" smooth="yes"/>
      <point x="169.0" y="41"/>
      <point x="117.0" y="112.0"/>
      <point x="117" y="227" type="curve" smooth="yes"/>
      <point x="117" y="471" type="line" smooth="yes"/>
      <point x="117" y="590"/>
      <point x="173" y="659"/>
      <point x="266" y="659" type="curve" smooth="yes"/>
      <point x="295" y="659"/>
      <point x="319" y="651"/>
      <point x="331" y="645" type="curve"/>
      <point x="337" y="645"/>
      <point x="340" y="650"/>
      <point x="340.0" y="664" type="curve" smooth="yes"/>
      <point x="340.0" y="683.0"/>
      <point x="318" y="706"/>
    </contour>
    <contour>
      <point x="350.0" y="27.0" type="curve"/>
      <point x="350.0" y="679.0" type="line" smooth="yes"/>
      <point x="350" y="685"/>
      <point x="345.0" y="690.0"/>
      <point x="300.0" y="690.0" type="curve"/>
      <point x="300.0" y="38.0" type="line"/>
      <point x="300.0" y="32.0"/>
      <point x="305.0" y="27.0"/>
    </contour>
    <contour>
      <point x="285" y="700" type="line"/>
      <point x="300" y="664" type="line" smooth="yes"/>
      <point x="303" y="657"/>
      <point x="310" y="653"/>
      <point x="321" y="653" type="curve" smooth="yes"/>
      <point x="560" y="653" type="line"/>
      <point x="560.0" y="665"/>
      <point x="560.0" y="677"/>
      <point x="560" y="689" type="curve" smooth="yes"/>
      <point x="560" y="692"/>
      <point x="559" y="695"/>
      <point x="557" y="697" type="curve" smooth="yes"/>
      <point x="555" y="699"/>
      <point x="552" y="700"/>
      <point x="549" y="700" type="curve"/>
    </contour>
    <contour>
      <point x="325" y="378" type="line"/>
      <point x="325" y="342" type="line"/>
      <point x="325" y="335"/>
      <point x="329" y="331"/>
      <point x="336" y="331" type="curve" smooth="yes"/>
      <point x="539" y="331" type="line"/>
      <point x="539.0" y="344"/>
      <point x="539" y="354"/>
      <point x="539" y="367" type="curve" smooth="yes"/>
      <point x="539.0" y="374.0"/>
      <point x="535.0" y="378.0"/>
      <point x="528" y="378" type="curve"/>
    </contour>
    <contour>
      <point x="300" y="47" type="line"/>
      <point x="300" y="11" type="line" smooth="yes"/>
      <point x="300" y="5"/>
      <point x="305" y="0"/>
      <point x="311" y="0" type="curve" smooth="yes"/>
      <point x="560" y="0" type="line"/>
      <point x="560.0" y="12"/>
      <point x="560.0" y="23"/>
      <point x="560" y="36" type="curve" smooth="yes"/>
      <point x="560" y="42"/>
      <point x="555.0" y="47.0"/>
      <point x="549" y="47" type="curve" smooth="yes"/>
    </contour>
  </outline>
</glyph>
<glyph name="tildecomb" format="1">
  <unicode hex="0303"/>
  <outline>
    <contour>
      <point x="75" y="698" type="curve" smooth="yes"/>
      <point x="20.0" y="698.0"/>
      <point x="-5" y="759.0"/>
      <point x="-76" y="759" type="curve" smooth="yes"/>
      <point x="-116" y="759"/>
      <point x="-146" y="744"/>
      <point x="-168" y="718" type="curve" smooth="yes"/>
      <point x="-176" y="708"/>
      <point x="-177" y="704"/>
      <point x="-177" y="696" type="curve"/>
      <point x="-177.0" y="687"/>
      <point x="-177.0" y="673"/>
      <point x="-177" y="661" type="curve"/>
      <point x="-166" y="661" type="line"/>
      <point x="-142" y="696"/>
      <point x="-110" y="717.0"/>
      <point x="-75" y="717" type="curve" smooth="yes"/>
      <point x="-20.0" y="717.0"/>
      <point x="5.0" y="656.0"/>
      <point x="76.0" y="656.0" type="curve" smooth="yes"/>
      <point x="116" y="656"/>
      <point x="146.0" y="671.0"/>
      <point x="168.0" y="697.0" type="curve" smooth="yes"/>
      <point x="176.0" y="707.0"/>
      <point x="177.0" y="711.0"/>
      <point x="177.0" y="719.0" type="curve"/>
      <point x="177.0" y="728.0"/>
      <point x="177.0" y="742.0"/>
      <point x="177.0" y="754.0" type="curve"/>
      <point x="166.0" y="754.0" type="line"/>
      <point x="142.0" y="719.0"/>
      <point x="110.0" y="698.0"/>
    </contour>
    <contour>
      <point x="0" y="537" type="move" name="_top"/>
    </contour>
  </outline>
</glyph>
<glyph name="macroncomb" format="1">
  <unicode hex="0304"/>
  <outline>
    <contour>
      <point x="-174" y="740" type="line"/>
      <point x="-174" y="727"/>
      <point x="-174" y="714"/>
      <point x="-174" y="701" type="curve" smooth="yes"/>
      <point x="-174.0" y="694.0"/>
      <point x="-170.0" y="690.0"/>
      <point x="-163" y="690" type="curve"/>
      <point x="174" y="690" type="line"/>
      <point x="174" y="703"/>
      <point x="174" y="716"/>
      <point x="174" y="729" type="curve" smooth="yes"/>
      <point x="174" y="735"/>
      <point x="169" y="740"/>
      <point x="163" y="740" type="curve"/>
    </contour>
    <contour>
      <point x="0" y="537" type="move" name="_top"/>
    </contour>
  </outline>
</glyph>
<glyph name="dotaccentcomb" format="1">
  <unicode hex="0307"/>
  <outline>
    <contour>
      <point x="40" y="676" type="curve"/>
      <point x="40" y="745" type="line" smooth="yes"/>
      <point x="40" y="751"/>
      <point x="35" y="756"/>
      <point x="29" y="756" type="curve" smooth="yes"/>
      <point x="6" y="756"/>
      <point x="-17" y="756"/>
      <point x="-40" y="756" type="curve"/>
      <point x="-40" y="687" type="line" smooth="yes"/>
      <point x="-40" y="681"/>
      <point x="-35" y="676"/>
      <point x="-29" y="676" type="curve" smooth="yes"/>
      <point x="-6" y="676"/>
      <point x="17" y="676"/>
    </contour>
    <contour>
      <point x="0" y="537" type="move" name="_top"/>
    </contour>
    <contour>
      <point x="0" y="716" type="move" name="_dot"/>
    </contour>
  </outline>
</glyph>
<glyph name="cedillacomb" format="1">
  <unicode hex="0327"/>
  <outline>
    <contour>
      <point x="95" y="-124" type="curve" smooth="yes"/>
      <point x="95" y="-74"/>
      <point x="63" y="-45"/>
      <point x="13" y="-42" type="curve"/>
      <point x="17" y="-21"/>
      <point x="22" y="1"/>
      <point x="26" y="22" type="curve"/>
      <point x="-14" y="22.0"/>
      <point x="-19" y="22"/>
      <point x="-21" y="9" type="curve" smooth="yes"/>
      <point x="-26" y="-17"/>
      <point x="-30" y="-40"/>
      <point x="-35" y="-67" type="curve" smooth="yes"/>
      <point x="-36" y="-73"/>
      <point x="-33.0" y="-79.0"/>
      <point x="-26" y="-79" type="curve" smooth="yes"/>
      <point x="36" y="-79.0"/>
      <point x="50.0" y="-95"/>
      <point x="50" y="-125" type="curve" smooth="yes"/>
      <point x="50.0" y="-158"/>
      <point x="22" y="-178.0"/>
      <point x="-21" y="-178.0" type="curve" smooth="yes"/>
      <point x="-58" y="-178.0"/>
      <point x="-73" y="-171"/>
      <point x="-88" y="-158" type="curve"/>
      <point x="-100" y="-158" type="line"/>
      <point x="-100" y="-169"/>
      <point x="-100" y="-176"/>
      <point x="-100" y="-192" type="curve" smooth="yes"/>
      <point x="-100.0" y="-203.0"/>
      <point x="-75" y="-220"/>
      <point x="-23" y="-220.0" type="curve" smooth="yes"/>
      <point x="52.0" y="-220.0"/>
      <point x="95.0" y="-179.0"/>
    </contour>
    <contour>
      <point x="0" y="-1" type="move" name="_bottom"/>
    </contour>
  </outline>
</glyph>
<glyph name="quoteleft" format="1">
  <advance width="600"/>
  <unicode hex="2018"/>
  <outline>
    <contour>
      <point x="340.0" y="720.0" type="curve" smooth="yes"/>
      <point x="335.0" y="720.0"/>
      <point x="332.0" y="719.0"/>
      <point x="330.0" y="713.0" type="curve"/>
      <point x="289.0" y="620.0"/>
      <point x="249.0" y="526.0"/>
      <point x="208.0" y="433.0" type="curve"/>
      <point x="205.0" y="425.0"/>
      <point x="208.0" y="420.0"/>
      <point x="216.0" y="420.0" type="curve" smooth="yes"/>
      <point x="251.0" y="420.0"/>
      <point x="271.0" y="420.0"/>
      <point x="312.0" y="420.0" type="curve"/>
      <point x="336.0" y="520.0"/>
      <point x="360.0" y="620.0"/>
      <point x="384.0" y="720.0" type="curve"/>
      <point x="372.0" y="720.0"/>
      <point x="359.0" y="720.0"/>
    </contour>
  </outline>
</glyph>
<glyph name="bitcoin" format="1">
  <advance width="600"/>
  <unicode hex="20BF"/>
  <outline>
    <contour>
      <point x="220.0" y="670.0" type="curve"/>
      <point x="220.0" y="779.0" type="line" smooth="yes"/>
      <point x="220.0" y="786.0"/>
      <point x="216.0" y="790.0"/>
      <point x="209.0" y="790.0" type="curve"/>
      <point x="196" y="790.0"/>
      <point x="183" y="790.0"/>
      <point x="170.0" y="790.0" type="curve"/>
      <point x="170.0" y="681.0" type="line" smooth="yes"/>
      <point x="170" y="674"/>
      <point x="174.0" y="670.0"/>
      <point x="181.0" y="670.0" type="curve" smooth="yes"/>
      <point x="194" y="670.0"/>
      <point x="207" y="670.0"/>
    </contour>
    <contour>
      <point x="370.0" y="670.0" type="curve"/>
      <point x="370.0" y="779.0" type="line" smooth="yes"/>
      <point x="370.0" y="786.0"/>
      <point x="366.0" y="790.0"/>
      <point x="359.0" y="790.0" type="curve"/>
      <point x="346" y="790.0"/>
      <point x="333" y="790.0"/>
      <point x="320.0" y="790.0" type="curve"/>
      <point x="320.0" y="681.0" type="line" smooth="yes"/>
      <point x="320" y="674"/>
      <point x="324.0" y="670.0"/>
      <point x="331.0" y="670.0" type="curve" smooth="yes"/>
      <point x="344.0" y="670.0"/>
      <point x="357.0" y="670.0"/>
    </contour>
    <contour>
      <point x="220.0" y="-110.0" type="curve"/>
      <point x="220.0" y="19.0" type="line" smooth="yes"/>
      <point x="220" y="26"/>
      <point x="216.0" y="30.0"/>
      <point x="209.0" y="30.0" type="curve"/>
      <point x="196" y="30.0"/>
      <point x="183" y="30.0"/>
      <point x="170.0" y="30.0" type="curve"/>
      <point x="170.0" y="-99.0" type="line" smooth="yes"/>
      <point x="170.0" y="-106.0"/>
      <point x="174.0" y="-110.0"/>
      <point x="181.0" y="-110.0" type="curve" smooth="yes"/>
      <point x="194" y="-110.0"/>
      <point x="207" y="-110.0"/>
    </contour>
    <contour>
      <point x="370.0" y="-110.0" type="curve"/>
      <point x="370.0" y="19.0" type="line" smooth="yes"/>
      <point x="370" y="26"/>
      <point x="366.0" y="30.0"/>
      <point x="359.0" y="30.0" type="curve"/>
      <point x="346" y="30.0"/>
      <point x="333" y="30.0"/>
      <point x="320.0" y="30.0" type="curve"/>
      <point x="320.0" y="-99.0" type="line" smooth="yes"/>
      <point x="320.0" y="-106.0"/>
      <point x="324.0" y="-110.0"/>
      <point x="331.0" y="-110.0" type="curve" smooth="yes"/>
      <point x="344.0" y="-110.0"/>
      <point x="357.0" y="-110.0"/>
    </contour>
    <component base="B"/>
  </outline>
</glyph>
<glyph name="trademark" format="1">
  <advance width="600"/>
  <unicode hex="2122"/>
  <outline>
    <contour>
      <point x="16" y="700" type="line"/>
      <point x="16.0" y="689"/>
      <point x="16.0" y="680"/>
      <point x="16" y="669" type="curve" smooth="yes"/>
      <point x="16.0" y="662.0"/>
      <point x="20.0" y="658.0"/>
      <point x="27" y="658" type="curve" smooth="yes"/>
      <point x="270" y="658" type="line"/>
      <point x="270.0" y="669"/>
      <point x="270.0" y="678"/>
      <point x="270" y="689" type="curve" smooth="yes"/>
      <point x="270.0" y="695.0"/>
      <point x="265" y="700"/>
      <point x="259" y="700" type="curve" smooth="yes"/>
    </contour>
    <contour>
      <point x="166" y="350" type="curve"/>
      <point x="166" y="382"/>
      <point x="166" y="415"/>
      <point x="166" y="450" type="curve" smooth="yes"/>
      <point x="166" y="675" type="line" smooth="yes"/>
      <point x="166.0" y="681.0"/>
      <point x="161" y="686.0"/>
      <point x="120" y="686" type="curve"/>
      <point x="120" y="361" type="line" smooth="yes"/>
      <point x="120" y="354"/>
      <point x="124.0" y="350.0"/>
      <point x="131" y="350" type="curve" smooth="yes"/>
      <point x="143" y="350"/>
      <point x="154" y="350.0"/>
    </contour>
    <contour>
      <point x="360" y="350" type="curve"/>
      <point x="360.0" y="404"/>
      <point x="360.0" y="458"/>
      <point x="360" y="512" type="curve" smooth="yes"/>
      <point x="360.0" y="571"/>
      <point x="360.0" y="639"/>
      <point x="360" y="689" type="curve" smooth="yes"/>
      <point x="360.0" y="695.0"/>
      <point x="355.0" y="700.0"/>
      <point x="349" y="700" type="curve" smooth="yes"/>
      <point x="336.0" y="700.0"/>
      <point x="327" y="700.0"/>
      <point x="314" y="700" type="curve"/>
      <point x="314.0" y="667"/>
      <point x="314" y="633"/>
      <point x="314" y="600" type="curve" smooth="yes"/>
      <point x="314" y="361" type="line" smooth="yes"/>
      <point x="314.0" y="354.0"/>
      <point x="318.0" y="350.0"/>
      <point x="325" y="350" type="curve" smooth="yes"/>
      <point x="338" y="350"/>
      <point x="347" y="350.0"/>
    </contour>
    <contour>
      <point x="558" y="350" type="curve"/>
      <point x="558" y="384"/>
      <point x="558.0" y="418.0"/>
      <point x="558" y="452" type="curve" smooth="yes"/>
      <point x="558" y="689" type="line" smooth="yes"/>
      <point x="558.0" y="696.0"/>
      <point x="554.0" y="700.0"/>
      <point x="547" y="700" type="curve" smooth="yes"/>
      <point x="512" y="700" type="line"/>
      <point x="512" y="698"/>
      <point x="512" y="696"/>
      <point x="512" y="693" type="curve" smooth="yes"/>
      <point x="512.0" y="673"/>
      <point x="512.0" y="570"/>
      <point x="512" y="512" type="curve" smooth="yes"/>
      <point x="512.0" y="462"/>
      <point x="512" y="411"/>
      <point x="512" y="361" type="curve" smooth="yes"/>
      <point x="512.0" y="354.0"/>
      <point x="516.0" y="350.0"/>
      <point x="523" y="350" type="curve"/>
      <point x="536" y="350"/>
      <point x="545" y="350"/>
    </contour>
    <contour>
      <point x="327" y="700" type="line"/>
      <point x="360" y="612"/>
      <point x="392" y="526"/>
      <point x="425" y="437" type="curve"/>
      <point x="427" y="433"/>
      <point x="432" y="430.0"/>
      <point x="436" y="430" type="curve"/>
      <point x="444.0" y="430.0"/>
      <point x="439.0" y="472.0"/>
      <point x="443" y="510" type="curve"/>
      <point x="419" y="574"/>
      <point x="397" y="633"/>
      <point x="377" y="687" type="curve"/>
      <point x="373" y="697"/>
      <point x="369.0" y="700.0"/>
      <point x="361" y="700" type="curve"/>
    </contour>
    <contour>
      <point x="522" y="700.0" type="curve" smooth="yes"/>
      <point x="515.0" y="700.0"/>
      <point x="510" y="700.0"/>
      <point x="503" y="700.0" type="curve"/>
      <point x="481" y="644"/>
      <point x="457" y="580"/>
      <point x="429" y="510" type="curve"/>
      <point x="420.0" y="483.0"/>
      <point x="431.0" y="430.0"/>
      <point x="436.0" y="430" type="curve"/>
      <point x="443" y="430" type="line"/>
      <point x="473" y="506"/>
      <point x="503" y="585"/>
      <point x="532" y="661.0" type="curve"/>
      <point x="539" y="681"/>
      <point x="538.0" y="700.0"/>
    </contour>
  </outline>
</glyph>
<glyph name="uni2191" format="1">
  <advance width="600"/>
  <unicode hex="2191"/>
  <outline>
    <contour>
      <point x="282.0" y="571.0" type="curve"/>
      <point x="281.0" y="500.0"/>
      <point x="275.0" y="159.0"/>
      <point x="275.0" y="151.0" type="curve" smooth="yes"/>
      <point x="275.0" y="11.0" type="line" smooth="yes"/>
      <point x="275" y="4"/>
      <point x="280.0" y="0.0"/>
      <point x="286.0" y="0.0" type="curve"/>
      <point x="332.0" y="0.0"/>
      <point x="279.0" y="0.0"/>
      <point x="325.0" y="0.0" type="curve"/>
      <point x="325.0" y="151.0" type="line"/>
      <point x="325.0" y="159.0"/>
      <point x="319.0" y="515.0"/>
      <point x="318" y="557" type="curve" smooth="yes"/>
      <point x="318" y="570"/>
      <point x="315.0" y="571.0"/>
      <point x="308.0" y="571.0" type="curve" smooth="yes"/>
      <point x="301.0" y="571.0"/>
      <point x="289.0" y="571.0"/>
    </contour>
    <contour>
      <point x="143.0" y="438.0" type="line"/>
      <point x="197.0" y="517.0"/>
      <point x="251.0" y="595.0"/>
      <point x="305.0" y="674.0" type="curve"/>
      <point x="315.0" y="688.0"/>
      <point x="312.0" y="694.0"/>
      <point x="320.0" y="700.0" type="curve"/>
      <point x="263.0" y="700.0" type="line"/>
      <point x="208.0" y="620.0"/>
      <point x="155.0" y="543.0"/>
      <point x="100.0" y="464.0" type="curve" smooth="yes"/>
      <point x="91" y="451"/>
      <point x="90.0" y="448.0"/>
      <point x="90.0" y="444.0" type="curve" smooth="yes"/>
      <point x="90.0" y="440.0"/>
      <point x="93.0" y="438.0"/>
      <point x="97.0" y="438.0" type="curve"/>
    </contour>
    <contour>
      <point x="517.0" y="439.0" type="curve"/>
      <point x="459.0" y="524.0"/>
      <point x="401.0" y="608.0"/>
      <point x="343.0" y="693.0" type="curve"/>
      <point x="340.0" y="698.0"/>
      <point x="335.0" y="700.0"/>
      <point x="327.0" y="700.0" type="curve" smooth="yes"/>
      <point x="311.0" y="700.0" type="line" smooth="yes"/>
      <point x="298.0" y="700.0"/>
      <point x="293.0" y="697.0"/>
      <point x="255.0" y="651.0" type="curve"/>
      <point x="272.0" y="651.0"/>
      <point x="289.0" y="651.0"/>
      <point x="304.0" y="651.0" type="curve" smooth="yes"/>
      <point x="309.0" y="651.0"/>
      <point x="312.0" y="650.0"/>
      <point x="315.0" y="646.0" type="curve" smooth="yes"/>
      <point x="360.0" y="580.0"/>
      <point x="406.0" y="513.0"/>
      <point x="451.0" y="447.0" type="curve" smooth="yes"/>
      <point x="456.0" y="440.0"/>
      <point x="458.0" y="439.0"/>
      <point x="466.0" y="439.0" type="curve" smooth="yes"/>
      <point x="482.0" y="439.0"/>
      <point x="501.0" y="439.0"/>
    </contour>
  </outline>
</glyph>
<glyph name="summation" format="1">
  <advance width="600"/>
  <unicode hex="2211"/>
  <outline>
    <contour>
      <point x="49" y="700" type="line"/>
      <point x="49.0" y="687"/>
      <point x="49.0" y="677"/>
      <point x="49" y="664" type="curve" smooth="yes"/>
      <point x="49.0" y="657.0"/>
      <point x="53.0" y="653.0"/>
      <point x="60" y="653" type="curve" smooth="yes"/>
      <point x="544" y="653" type="line"/>
      <point x="544.0" y="666"/>
      <point x="544.0" y="676"/>
      <point x="544" y="689" type="curve" smooth="yes"/>
      <point x="544.0" y="695.0"/>
      <point x="539.0" y="700.0"/>
      <point x="533" y="700" type="curve" smooth="yes"/>
    </contour>
    <contour>
      <point x="450" y="229" type="curve" smooth="yes"/>
      <point x="460.0" y="229.0"/>
      <point x="464" y="245"/>
      <point x="464" y="246" type="curve" smooth="yes"/>
      <point x="464" y="272" type="line"/>
      <point x="356.0" y="404.0"/>
      <point x="247.0" y="538.0"/>
      <point x="145" y="663" type="curve"/>
      <point x="138" y="673"/>
      <point x="117" y="675"/>
      <point x="75" y="667" type="curve"/>
      <point x="200.0" y="515.0"/>
      <point x="341.0" y="341.0"/>
      <point x="422" y="243" type="curve"/>
      <point x="432" y="232"/>
      <point x="440.0" y="229.0"/>
    </contour>
    <contour>
      <point x="421" y="260" type="curve"/>
      <point x="326" y="148"/>
      <point x="198" y="-3"/>
      <point x="69" y="-155" type="curve"/>
      <point x="69.0" y="-166.33333333333334"/>
      <point x="69" y="-174"/>
      <point x="69" y="-189" type="curve" smooth="yes"/>
      <point x="69" y="-193"/>
      <point x="72.0" y="-193.0"/>
      <point x="112" y="-176" type="curve"/>
      <point x="232.0" y="-37"/>
      <point x="423.0" y="186.0"/>
      <point x="454" y="223" type="curve"/>
      <point x="463" y="234"/>
      <point x="464" y="242"/>
      <point x="464" y="250" type="curve" smooth="yes"/>
      <point x="464.0" y="257"/>
      <point x="458.0" y="260.0"/>
    </contour>
    <contour>
      <point x="69" y="-158" type="curve"/>
      <point x="69.0" y="-173"/>
      <point x="69.0" y="-184"/>
      <point x="69" y="-189" type="curve"/>
      <point x="69" y="-195"/>
      <point x="74.0" y="-200.0"/>
      <point x="80" y="-200" type="curve" smooth="yes"/>
      <point x="544" y="-200" type="line"/>
      <point x="544.0" y="-187"/>
      <point x="544.0" y="-177"/>
      <point x="544" y="-164" type="curve" smooth="yes"/>
      <point x="544" y="-158"/>
      <point x="539" y="-153"/>
      <point x="533" y="-153" type="curve" smooth="yes"/>
      <point x="121" y="-153" type="line"/>
      <point x="99" y="-153.0"/>
      <point x="91" y="-154"/>
    </contour>
  </outline>
</glyph>
<glyph name="infinity" format="1">
  <advance width="600"/>
  <unicode hex="221E"/>
  <outline>
    <contour>
      <point x="303" y="349" type="line" smooth="yes"/>
      <point x="270" y="441"/>
      <point x="226" y="479.0"/>
      <point x="173" y="479" type="curve"/>
      <point x="144.0" y="479.0"/>
      <point x="117.0" y="463.0"/>
      <point x="117" y="439" type="curve"/>
      <point x="122.0" y="439.0"/>
      <point x="136.0" y="439.0"/>
      <point x="166" y="439" type="curve" smooth="yes"/>
      <point x="208" y="439.0"/>
      <point x="236.0" y="414"/>
      <point x="265" y="338" type="curve" smooth="yes"/>
      <point x="292" y="267" type="line" smooth="yes"/>
      <point x="331" y="165"/>
      <point x="364.2857142857143" y="122.0"/>
      <point x="423" y="122" type="curve" smooth="yes"/>
      <point x="447" y="122"/>
      <point x="472" y="142"/>
      <point x="472" y="162" type="curve"/>
      <point x="453" y="162"/>
      <point x="443" y="162"/>
      <point x="428" y="162" type="curve" smooth="yes"/>
      <point x="380.48275862068965" y="162.0"/>
      <point x="357" y="195.0"/>
      <point x="327" y="279" type="curve" smooth="yes"/>
    </contour>
    <contour>
      <point x="34" y="299" type="curve" smooth="yes"/>
      <point x="34" y="266"/>
      <point x="52" y="233"/>
      <point x="71" y="233" type="curve"/>
      <point x="71" y="246"/>
      <point x="71" y="267"/>
      <point x="71" y="299" type="curve" smooth="yes"/>
      <point x="71.0" y="388.0"/>
      <point x="103" y="439.0"/>
      <point x="156" y="439" type="curve" smooth="yes"/>
      <point x="184" y="439"/>
      <point x="198" y="439"/>
      <point x="206" y="439" type="curve"/>
      <point x="204" y="462"/>
      <point x="190" y="479"/>
      <point x="173" y="479" type="curve" smooth="yes"/>
      <point x="153" y="479" type="line" smooth="yes"/>
      <point x="82" y="479"/>
      <point x="34.0" y="408.0"/>
    </contour>
    <contour>
      <point x="566" y="302" type="curve" smooth="yes"/>
      <point x="566" y="340"/>
      <point x="550" y="370"/>
      <point x="529" y="370" type="curve"/>
      <point x="529" y="354"/>
      <point x="529" y="325"/>
      <point x="529" y="297" type="curve" smooth="yes"/>
      <point x="529.0" y="221.0"/>
      <point x="488.75" y="162.0"/>
      <point x="437" y="162" type="curve" smooth="yes"/>
      <point x="416" y="162"/>
      <point x="400" y="162"/>
      <point x="380" y="162" type="curve"/>
      <point x="380" y="136"/>
      <point x="396" y="122"/>
      <point x="423" y="122" type="curve" smooth="yes"/>
      <point x="443" y="122" type="line" smooth="yes"/>
      <point x="514.3916083916084" y="122"/>
      <point x="566.0" y="197.0"/>
    </contour>
    <contour>
      <point x="300" y="322" type="curve" smooth="yes"/>
      <point x="300" y="306"/>
      <point x="305" y="294"/>
      <point x="313" y="290" type="curve"/>
      <point x="346.0" y="386"/>
      <point x="373.0" y="438"/>
      <point x="432" y="438" type="curve" smooth="yes"/>
      <point x="441" y="438" type="line" smooth="yes"/>
      <point x="500" y="438"/>
      <point x="529.0" y="392.0"/>
      <point x="529" y="297" type="curve"/>
      <point x="557" y="287"/>
      <point x="566" y="288"/>
      <point x="566" y="302" type="curve" smooth="yes"/>
      <point x="566.0" y="408.0"/>
      <point x="518" y="479"/>
      <point x="447" y="479" type="curve" smooth="yes"/>
      <point x="427" y="479" type="line" smooth="yes"/>
      <point x="352.0" y="479"/>
      <point x="300.0" y="381.0"/>
    </contour>
    <contour>
      <point x="71" y="299" type="curve"/>
      <point x="49" y="314"/>
      <point x="34" y="314"/>
      <point x="34" y="299" type="curve" smooth="yes"/>
      <point x="34.0" y="196.0"/>
      <point x="84" y="122"/>
      <point x="151" y="122" type="curve" smooth="yes"/>
      <point x="171" y="122" type="line" smooth="yes"/>
      <point x="240" y="122"/>
      <point x="304.0" y="195"/>
      <point x="304" y="278" type="curve" smooth="yes"/>
      <point x="304.0" y="287.0"/>
      <point x="294.0" y="299.0"/>
      <point x="285" y="303" type="curve"/>
      <point x="270" y="219"/>
      <point x="222" y="162"/>
      <point x="167" y="162" type="curve" smooth="yes"/>
      <point x="157" y="162" type="line" smooth="yes"/>
      <point x="106" y="162"/>
      <point x="71.0" y="216.0"/>
    </contour>
  </outline>
</glyph>
<glyph name="greaterequal" format="1">
  <advance width="600"/>
  <unicode hex="2265"/>
  <outline>
    <contour>
      <point x="75.0" y="533.0" type="curve"/>
      <point x="75.0" y="522.0"/>
      <point x="75.0" y="507.0"/>
      <point x="75.0" y="501.0" type="curve"/>
      <point x="75.0" y="491.0"/>
      <point x="77.0" y="484.0"/>
      <point x="89.0" y="481.0" type="curve" smooth="yes"/>
      <point x="199.0" y="449.0"/>
      <point x="370.0" y="399.0"/>
      <point x="464.0" y="373.0" type="curve"/>
      <point x="474.0" y="370.0"/>
      <point x="476.0" y="367.0"/>
      <point x="476.0" y="360.0" type="curve" smooth="yes"/>
      <point x="476.0" y="349.0"/>
      <point x="476.0" y="346.0"/>
      <point x="476.0" y="335.0" type="curve"/>
      <point x="508.0" y="335.0"/>
      <point x="525.0" y="339.0"/>
      <point x="525.0" y="351.0" type="curve" smooth="yes"/>
      <point x="525.0" y="385.0" type="line" smooth="yes"/>
      <point x="525.0" y="395.0"/>
      <point x="522.0" y="401.0"/>
      <point x="512.0" y="404.0" type="curve" smooth="yes"/>
      <point x="361.0" y="449.0"/>
      <point x="231.0" y="487.0"/>
    </contour>
    <contour>
      <point x="75.0" y="234.0" type="curve"/>
      <point x="75.0" y="200.0" type="line"/>
      <point x="75.0" y="194.0"/>
      <point x="78.0" y="190.0"/>
      <point x="84.0" y="190.0" type="curve" smooth="yes"/>
      <point x="88.0" y="190.0"/>
      <point x="92.0" y="191.0"/>
      <point x="106.0" y="195.0" type="curve"/>
      <point x="157.0" y="210.0"/>
      <point x="362.0" y="270.0"/>
      <point x="525.0" y="317.0" type="curve"/>
      <point x="525.0" y="355.0" type="line"/>
      <point x="516.0" y="355.0"/>
      <point x="506.0" y="356.0"/>
      <point x="441.0" y="338.0" type="curve" smooth="yes"/>
      <point x="318.0" y="303.0"/>
      <point x="208.0" y="271.0"/>
    </contour>
    <contour>
      <point x="75" y="142" type="line"/>
      <point x="75.0" y="130.0"/>
      <point x="75" y="118"/>
      <point x="75" y="106" type="curve" smooth="yes"/>
      <point x="75.0" y="99.0"/>
      <point x="79.0" y="95.0"/>
      <point x="86" y="95" type="curve"/>
      <point x="524" y="95" type="line"/>
      <point x="524.0" y="107.0"/>
      <point x="524.0" y="119.0"/>
      <point x="524" y="131" type="curve" smooth="yes"/>
      <point x="524.0" y="137.0"/>
      <point x="519.0" y="142.0"/>
      <point x="513" y="142" type="curve"/>
    </contour>
  </outline>
</glyph>
<glyph name="lozenge" format="1">
  <advance width="600"/>
  <unicode hex="25CA"/>
  <outline>
    <contour>
      <point x="119" y="331" type="curve"/>
      <point x="196" y="476"/>
      <point x="232" y="544"/>
      <point x="303" y="676" type="curve"/>
      <point x="310" y="690"/>
      <point x="313" y="695"/>
      <point x="321" y="700" type="curve"/>
      <point x="262" y="700" type="line"/>
      <point x="191" y="569"/>
      <point x="106" y="408"/>
      <point x="85" y="369" type="curve" smooth="yes"/>
      <point x="78" y="357"/>
      <point x="77" y="354"/>
      <point x="77" y="350" type="curve" smooth="yes"/>
      <point x="77" y="346"/>
      <point x="91" y="331"/>
    </contour>
    <contour>
      <point x="120" y="369" type="curve"/>
      <point x="91" y="369"/>
      <point x="77" y="354"/>
      <point x="77" y="350" type="curve" smooth="yes"/>
      <point x="77" y="346"/>
      <point x="78" y="343"/>
      <point x="85" y="331" type="curve" smooth="yes"/>
      <point x="105" y="294"/>
      <point x="186" y="141"/>
      <point x="257" y="10" type="curve" smooth="yes"/>
      <point x="262" y="2"/>
      <point x="265" y="0.0"/>
      <point x="273" y="0.0" type="curve" smooth="yes"/>
      <point x="288" y="0.0" type="line" smooth="yes"/>
      <point x="311" y="0.0"/>
      <point x="342" y="16"/>
      <point x="345" y="48" type="curve"/>
      <point x="299" y="48" type="line" smooth="yes"/>
      <point x="294" y="48"/>
      <point x="292" y="48"/>
      <point x="289" y="52" type="curve" smooth="yes"/>
      <point x="222" y="179"/>
      <point x="190" y="239"/>
    </contour>
    <contour>
      <point x="480" y="331" type="curve"/>
      <point x="509" y="331"/>
      <point x="523" y="346"/>
      <point x="523" y="350" type="curve" smooth="yes"/>
      <point x="523" y="354"/>
      <point x="522" y="357"/>
      <point x="516" y="369" type="curve" smooth="yes"/>
      <point x="496" y="406"/>
      <point x="414" y="559"/>
      <point x="343" y="690" type="curve" smooth="yes"/>
      <point x="339" y="698"/>
      <point x="335" y="700"/>
      <point x="327" y="700" type="curve" smooth="yes"/>
      <point x="312" y="700" type="line" smooth="yes"/>
      <point x="289" y="700"/>
      <point x="259" y="684"/>
      <point x="255" y="653" type="curve"/>
      <point x="302" y="653" type="line" smooth="yes"/>
      <point x="306" y="653"/>
      <point x="308" y="653"/>
      <point x="311" y="648" type="curve" smooth="yes"/>
      <point x="379" y="521"/>
      <point x="410" y="461"/>
    </contour>
    <contour>
      <point x="481" y="369" type="curve"/>
      <point x="404" y="225"/>
      <point x="368" y="156"/>
      <point x="298" y="25" type="curve"/>
      <point x="290" y="10"/>
      <point x="287" y="6"/>
      <point x="280" y="0.0" type="curve"/>
      <point x="339" y="0.0" type="line"/>
      <point x="409" y="131"/>
      <point x="495" y="292"/>
      <point x="516" y="331" type="curve" smooth="yes"/>
      <point x="522" y="343"/>
      <point x="523" y="346"/>
      <point x="523" y="350" type="curve" smooth="yes"/>
      <point x="523" y="354"/>
      <point x="509" y="369"/>
    </contour>
  </outline>
</glyph>
<glyph name="Y.ss02" format="1">
  <advance width="600"/>
  <outline>
    <contour>
      <point x="107" y="698" type="curve" smooth="yes"/>
      <point x="106" y="699"/>
      <point x="104" y="700"/>
      <point x="100" y="700" type="curve"/>
      <point x="48" y="700" type="line"/>
      <point x="177" y="416" type="line" smooth="yes"/>
      <point x="263" y="227"/>
      <point x="265" y="225"/>
      <point x="267" y="223" type="curve" smooth="yes"/>
      <point x="268" y="222"/>
      <point x="269" y="222"/>
      <point x="271" y="222" type="curve" smooth="yes"/>
      <point x="334" y="222" type="line" smooth="yes"/>
      <point x="358" y="222"/>
      <point x="366" y="240"/>
      <point x="365" y="269" type="curve"/>
      <point x="305" y="269" type="line"/>
      <point x="303" y="269"/>
      <point x="302" y="269"/>
      <point x="301" y="270" type="curve" smooth="yes"/>
      <point x="300" y="271"/>
      <point x="299" y="272"/>
      <point x="207" y="477" type="curve" smooth="yes"/>
      <point x="112" y="689" type="line"/>
      <point x="109" y="696"/>
      <point x="108" y="697"/>
    </contour>
    <contour>
      <point x="545" y="697" type="curve" smooth="yes"/>
      <point x="543" y="699"/>
      <point x="541" y="700"/>
      <point x="538" y="700" type="curve"/>
      <point x="495" y="700" type="line"/>
      <point x="450" y="577" type="line" smooth="yes"/>
      <point x="398" y="435"/>
      <point x="346" y="293"/>
      <point x="292" y="148" type="curve" smooth="yes"/>
      <point x="259" y="60"/>
      <point x="214" y="46"/>
      <point x="97" y="41" type="curve"/>
      <point x="97" y="20"/>
      <point x="116" y="0"/>
      <point x="130" y="0" type="curve" smooth="yes"/>
      <point x="237" y="0"/>
      <point x="302" y="20"/>
      <point x="348" y="147" type="curve" smooth="yes"/>
      <point x="399" y="287"/>
      <point x="449" y="426"/>
      <point x="500" y="565" type="curve" smooth="yes"/>
      <point x="545" y="689" type="line" smooth="yes"/>
      <point x="547" y="694"/>
      <point x="546" y="696"/>
    </contour>
    <contour>
      <point x="68" y="50" type="line"/>
      <point x="68" y="11" type="line"/>
      <point x="68" y="8"/>
      <point x="69" y="5"/>
      <point x="71" y="3" type="curve"/>
      <point x="73" y="1"/>
      <point x="76" y="0"/>
      <point x="79" y="0" type="curve"/>
      <point x="130" y="0" type="line"/>
      <point x="193" y="0"/>
      <point x="259" y="23"/>
      <point x="259" y="50" type="curve"/>
      <point x="200" y="50"/>
      <point x="137" y="50"/>
      <point x="78" y="50" type="curve"/>
    </contour>
  </outline>
</glyph>
<glyph name="g.replaced_with_bigear" format="1">
  <advance width="600"/>
  <outline>
    <contour>
      <point x="292" y="487" type="curve" smooth="yes"/>
      <point x="346" y="487.0"/>
      <point x="397" y="469"/>
      <point x="423" y="438" type="curve"/>
      <point x="433" y="448"/>
      <point x="440" y="478"/>
      <point x="429" y="489" type="curve" smooth="yes"/>
      <point x="396" y="522"/>
      <point x="341" y="536"/>
      <point x="301" y="536" type="curve" smooth="yes"/>
      <point x="287" y="536" type="line" smooth="yes"/>
      <point x="176" y="536"/>
      <point x="85" y="469"/>
      <point x="85" y="366" type="curve" smooth="yes"/>
      <point x="85" y="327" type="line" smooth="yes"/>
      <point x="85.0" y="274.0"/>
      <point x="97" y="241"/>
      <point x="132" y="206" type="curve" smooth="yes"/>
      <point x="145" y="193"/>
      <point x="183.16629055979502" y="191.16629055979502"/>
      <point x="195" y="203" type="curve"/>
      <point x="156.69322783840323" y="241.30677216159677"/>
      <point x="135" y="273"/>
      <point x="135" y="313" type="curve" smooth="yes"/>
      <point x="135" y="356" type="line" smooth="yes"/>
      <point x="135" y="440.0"/>
      <point x="198" y="487.0"/>
    </contour>
    <contour>
      <point x="272.0" y="207.0" type="curve" smooth="yes"/>
      <point x="217.82706766917295" y="207.0"/>
      <point x="167.47448842520265" y="225.45251335553542"/>
      <point x="141.0" y="256.0" type="curve"/>
      <point x="131.1287172960034" y="246.1287172960034"/>
      <point x="122" y="216"/>
      <point x="132.0" y="206.0" type="curve" smooth="yes"/>
      <point x="165" y="173"/>
      <point x="222.42741935483872" y="158.0"/>
      <point x="263.0" y="158.0" type="curve" smooth="yes"/>
      <point x="277.0" y="158.0" type="line" smooth="yes"/>
      <point x="388" y="158.0"/>
      <point x="479" y="225"/>
      <point x="479.0" y="328.0" type="curve" smooth="yes"/>
      <point x="479.0" y="366.0" type="line" smooth="yes"/>
      <point x="479.0" y="419.0"/>
      <point x="464" y="454"/>
      <point x="429.0" y="489.0" type="curve" smooth="yes"/>
      <point x="414.0" y="504.0"/>
      <point x="381.0" y="503.0"/>
      <point x="369.0" y="491.0" type="curve"/>
      <point x="407" y="453"/>
      <point x="429" y="420"/>
      <point x="429.0" y="380.0" type="curve" smooth="yes"/>
      <point x="429.0" y="338.0" type="line" smooth="yes"/>
      <point x="429.0" y="254.0"/>
      <point x="366" y="207.0"/>
    </contour>
    <contour>
      <point x="200" y="93" type="curve" smooth="yes"/>
      <point x="200" y="80" type="line" smooth="yes"/>
      <point x="200" y="27"/>
      <point x="231" y="0"/>
      <point x="293" y="0" type="curve" smooth="yes"/>
      <point x="416" y="0" type="line" smooth="yes"/>
      <point x="481" y="0"/>
      <point x="510" y="-30.0"/>
      <point x="510" y="-75" type="curve" smooth="yes"/>
      <point x="510" y="-96" type="line" smooth="yes"/>
      <point x="510.0" y="-122"/>
      <point x="505" y="-150"/>
      <point x="464" y="-191" type="curve"/>
      <point x="481.0" y="-208.0"/>
      <point x="501.0" y="-212.0"/>
      <point x="516" y="-197" type="curve" smooth="yes"/>
      <point x="548" y="-165"/>
      <point x="560" y="-132.46875"/>
      <point x="560" y="-92" type="curve" smooth="yes"/>
      <point x="560" y="-75" type="line" smooth="yes"/>
      <point x="560" y="0.18796992481202324"/>
      <point x="518.0" y="50"/>
      <point x="417" y="50" type="curve" smooth="yes"/>
      <point x="285" y="50" type="line" smooth="yes"/>
      <point x="258" y="50"/>
      <point x="250" y="58"/>
      <point x="250" y="85" type="curve" smooth="yes"/>
      <point x="250" y="94" type="line" smooth="yes"/>
      <point x="250" y="119.4375"/>
      <point x="267.8796030996195" y="153.07732019968665"/>
      <point x="286" y="168" type="curve"/>
      <point x="286.0" y="175.0"/>
      <point x="279" y="177"/>
      <point x="258" y="177" type="curve" smooth="yes"/>
      <point x="238" y="177"/>
      <point x="200" y="128"/>
    </contour>
    <contour>
      <point x="521" y="-139" type="curve"/>
      <point x="469" y="-183"/>
      <point x="431" y="-200.0"/>
      <point x="347" y="-200" type="curve"/>
      <point x="206" y="-200" type="line"/>
      <point x="144.75862068965517" y="-200.0"/>
      <point x="110" y="-174.0"/>
      <point x="110" y="-125" type="curve" smooth="yes"/>
      <point x="110" y="-100" type="line" smooth="yes"/>
      <point x="110" y="-64"/>
      <point x="141" y="-6"/>
      <point x="258" y="8" type="curve"/>
      <point x="258.0" y="21"/>
      <point x="253" y="36.0"/>
      <point x="239" y="36" type="curve"/>
      <point x="139" y="36.0"/>
      <point x="60" y="-24"/>
      <point x="60" y="-104" type="curve" smooth="yes"/>
      <point x="60" y="-131" type="line" smooth="yes"/>
      <point x="60" y="-195.0"/>
      <point x="114.76470588235294" y="-250.0"/>
      <point x="193" y="-250" type="curve"/>
      <point x="310" y="-250" type="line"/>
      <point x="409.44827586206895" y="-250.0"/>
      <point x="478.06578794558317" y="-234.93421205441683"/>
      <point x="516" y="-197" type="curve"/>
      <point x="526.9771914797531" y="-186.02280852024688"/>
      <point x="529.4439934459639" y="-147.44399344596394"/>
    </contour>
    <contour>
      <point x="435" y="464" type="curve" smooth="yes"/>
      <point x="531" y="498" type="line" smooth="yes"/>
      <point x="565" y="510"/>
      <point x="570.0" y="529.0"/>
      <point x="570" y="557" type="curve" smooth="yes"/>
      <point x="570" y="560" type="line" smooth="yes"/>
      <point x="570.0" y="566.0"/>
      <point x="565.0" y="571.0"/>
      <point x="559" y="571" type="curve" smooth="yes"/>
      <point x="536" y="571.0"/>
      <point x="513" y="571.0"/>
      <point x="490" y="571" type="curve"/>
      <point x="490.0" y="568"/>
      <point x="490" y="565"/>
      <point x="490.0" y="562" type="curve" smooth="yes"/>
      <point x="490.0" y="542.0"/>
      <point x="486" y="528"/>
      <point x="472" y="522" type="curve" smooth="yes"/>
      <point x="396" y="487" type="line"/>
      <point x="409" y="459"/>
      <point x="412" y="456"/>
    </contour>
  </outline>
</glyph>
<glyph name="hungarumlautcomb.case" format="1">
  <outline>
    <component base="acutecomb.case" xOffset="-90"/>
    <component base="acutecomb.case" xOffset="140"/>
    <contour>
      <point x="0" y="711" type="move" name="_top"/>
    </contour>
  </outline>
</glyph>
<glyph name="j.italicer" format="1">
  <advance width="600"/>
  <outline>
    <contour>
      <point x="425" y="0" type="curve" smooth="yes"/>
      <point x="425" y="513" type="line"/>
      <point x="425" y="518"/>
      <point x="423" y="522"/>
      <point x="420" y="525" type="curve" smooth="yes"/>
      <point x="412" y="533"/>
      <point x="401" y="536"/>
      <point x="385" y="536" type="curve"/>
      <point x="375" y="536" type="line"/>
      <point x="375" y="0" type="line" smooth="yes"/>
      <point x="375" y="-112"/>
      <point x="353" y="-137"/>
      <point x="276" y="-206" type="curve"/>
      <point x="308" y="-206"/>
      <point x="344" y="-204"/>
      <point x="359" y="-189" type="curve" smooth="yes"/>
      <point x="398" y="-150"/>
      <point x="425" y="-89"/>
    </contour>
    <contour>
      <point x="192" y="-200" type="curve" smooth="yes"/>
      <point x="148" y="-200"/>
      <point x="108" y="-193"/>
      <point x="72" y="-175" type="curve"/>
      <point x="60" y="-175" type="line"/>
      <point x="60" y="-189"/>
      <point x="60" y="-202"/>
      <point x="60" y="-216" type="curve" smooth="yes"/>
      <point x="60" y="-220"/>
      <point x="61" y="-222"/>
      <point x="63" y="-224" type="curve" smooth="yes"/>
      <point x="78" y="-239"/>
      <point x="137" y="-250"/>
      <point x="192" y="-250" type="curve" smooth="yes"/>
      <point x="197" y="-250" type="line" smooth="yes"/>
      <point x="245" y="-250"/>
      <point x="307" y="-241"/>
      <point x="359" y="-189" type="curve" smooth="yes"/>
      <point x="367" y="-181"/>
      <point x="374" y="-138"/>
      <point x="371" y="-122" type="curve"/>
      <point x="307" y="-185"/>
      <point x="266" y="-200"/>
    </contour>
    <contour>
      <point x="440" y="676" type="curve"/>
      <point x="440" y="745" type="line" smooth="yes"/>
      <point x="440" y="751"/>
      <point x="435" y="756"/>
      <point x="429" y="756" type="curve" smooth="yes"/>
      <point x="406" y="756"/>
      <point x="383" y="756"/>
      <point x="360" y="756" type="curve"/>
      <point x="360" y="687" type="line" smooth="yes"/>
      <point x="360" y="681"/>
      <point x="365" y="676"/>
      <point x="371" y="676" type="curve" smooth="yes"/>
      <point x="394" y="676"/>
      <point x="417" y="676"/>
    </contour>
    <contour>
      <point x="73" y="403" type="curve"/>
      <point x="78" y="391"/>
      <point x="83" y="379"/>
      <point x="88" y="367" type="curve" smooth="yes"/>
      <point x="90" y="362"/>
      <point x="93" y="361"/>
      <point x="98" y="361" type="curve" smooth="yes"/>
      <point x="100" y="361"/>
      <point x="103" y="362"/>
      <point x="114" y="367" type="curve" smooth="yes"/>
      <point x="200" y="405"/>
      <point x="348" y="470"/>
      <point x="405" y="495" type="curve"/>
      <point x="392" y="526"/>
      <point x="380" y="538"/>
      <point x="375" y="536" type="curve" smooth="yes"/>
      <point x="254" y="484"/>
      <point x="192" y="455"/>
    </contour>
  </outline>
</glyph>
<glyph name="l.italic" format="1">
  <advance width="600.0"/>
  <outline>
    <contour>
      <point x="201.8882257189365" y="750.0" type="curve"/>
      <point x="198.84102007596312" y="738.0"/>
      <point x="196.55561584373305" y="727.5236028214867"/>
      <point x="193.5084102007596" y="715.5236028214867" type="curve" smooth="yes"/>
      <point x="191.98480737927292" y="709.5236028214867"/>
      <point x="195.4612045577862" y="704.5236028214867"/>
      <point x="201.4612045577862" y="704.5236028214867" type="curve" smooth="yes"/>
      <point x="272.46120455778623" y="704.5236028214867"/>
      <point x="359.46120455778623" y="704.5236028214867"/>
      <point x="401.46120455778623" y="704.5236028214867" type="curve"/>
      <point x="412.1264243081931" y="745.5236028214867"/>
      <point x="407.8882257189365" y="750.0"/>
      <point x="401.8882257189365" y="750.0" type="curve"/>
      <point x="334.8882257189365" y="750.0"/>
      <point x="268.8882257189365" y="750.0"/>
    </contour>
    <contour>
      <point x="448.1264243081931" y="747.0" type="curve" smooth="yes"/>
      <point x="446.8882257189365" y="749.0"/>
      <point x="443.8882257189365" y="750.0"/>
      <point x="440.8882257189365" y="750.0" type="curve" smooth="yes"/>
      <point x="401.8882257189365" y="750.0" type="line"/>
      <point x="243.43353228431906" y="127.0" type="line" smooth="yes"/>
      <point x="234.2919153553988" y="87.14161692892024"/>
      <point x="244.48290830168204" y="51.476397178513295"/>
      <point x="274.3884970157352" y="51.476397178513295" type="curve"/>
      <point x="279.7211068909387" y="73.4763971785133"/>
      <point x="288.1009224091156" y="106.4763971785133"/>
      <point x="294.1953336950624" y="129.47639717851328" type="curve" smooth="yes"/>
      <point x="449.60282148670643" y="739.0" type="line" smooth="yes"/>
      <point x="450.3646228974498" y="742.0"/>
      <point x="450.1264243081931" y="745.0"/>
    </contour>
    <contour>
      <point x="462.8648941942485" y="45.476397178513295" type="curve"/>
      <point x="452.8648941942485" y="45.476397178513295" type="line"/>
      <point x="420.8648941942485" y="45.476397178513295"/>
      <point x="388.8648941942485" y="45.476397178513295"/>
      <point x="356.8648941942485" y="45.476397178513295" type="curve"/>
      <point x="291.8648941942485" y="45.476397178513295"/>
      <point x="277.43570265870864" y="64.4763971785133"/>
      <point x="294.1953336950624" y="129.47639717851328" type="curve"/>
      <point x="255.48073792729247" y="137.47639717851328"/>
      <point x="244.95713510580575" y="134.0"/>
      <point x="243.43353228431906" y="127.0" type="curve" smooth="yes"/>
      <point x="223.62669560499188" y="47.332609875203474"/>
      <point x="250.246880086815" y="0.0"/>
      <point x="342.4378730330982" y="0.0" type="curve" smooth="yes"/>
      <point x="440.4378730330982" y="0.0" type="line" smooth="yes"/>
      <point x="443.4378730330982" y="0.0"/>
      <point x="446.4378730330982" y="1.0"/>
      <point x="449.19967444384156" y="3.0" type="curve" smooth="yes"/>
      <point x="451.96147585458493" y="5.0"/>
      <point x="452.96147585458493" y="7.0"/>
      <point x="454.4850786760716" y="11.0" type="curve"/>
      <point x="457.53228431904506" y="23.0"/>
      <point x="459.81768855127507" y="33.476397178513295"/>
    </contour>
  </outline>
</glyph>
<glyph name="r.italic" format="1">
  <advance width="600.0"/>
  <outline>
    <contour>
      <point x="134.96859880789097" y="526.0" type="curve"/>
      <point x="131.66840976782953" y="513.0"/>
      <point x="128.87594211854682" y="501.5236028214867"/>
      <point x="125.57575307848538" y="488.5236028214867" type="curve" smooth="yes"/>
      <point x="124.05258890614935" y="482.5236028214867"/>
      <point x="127.78328542920266" y="477.5236028214867"/>
      <point x="133.78328542920266" y="477.5236028214867" type="curve" smooth="yes"/>
      <point x="193.7832854292027" y="477.5236028214867"/>
      <point x="252.7832854292027" y="477.5236028214867"/>
      <point x="312.7832854292027" y="477.5236028214867" type="curve"/>
      <point x="320.9068276816615" y="509.5236028214867"/>
      <point x="318.968598807891" y="526.0"/>
      <point x="314.968598807891" y="526.0" type="curve" smooth="yes"/>
      <point x="250.968598807891" y="526.0"/>
      <point x="198.968598807891" y="526.0"/>
    </contour>
    <contour>
      <point x="196.4378730330982" y="0.0" type="curve"/>
      <point x="206.84616154406118" y="41.0"/>
      <point x="214.96970379652" y="73.0"/>
      <point x="221.8239425720322" y="100.0" type="curve" smooth="yes"/>
      <point x="325.9068276816615" y="510.0" type="line" smooth="yes"/>
      <point x="328.44543463555493" y="520.0"/>
      <point x="324.968598807891" y="526.0"/>
      <point x="314.968598807891" y="526.0" type="curve" smooth="yes"/>
      <point x="305.968598807891" y="526.0"/>
      <point x="291.7147381125016" y="525.0"/>
      <point x="278.9531560263336" y="522.0" type="curve"/>
      <point x="149.23034068238096" y="11.0" type="line" smooth="yes"/>
      <point x="147.70717651004492" y="5.0"/>
      <point x="151.4378730330982" y="0.0"/>
      <point x="157.4378730330982" y="0.0" type="curve" smooth="yes"/>
      <point x="170.4378730330982" y="0.0"/>
      <point x="184.4378730330982" y="0.0"/>
    </contour>
    <contour>
      <point x="261.4248507867607" y="328.95496473141617" type="curve"/>
      <point x="390.5170916983179" y="457.9055887140532"/>
      <point x="450.32609875203474" y="481.0"/>
      <point x="517.3260987520347" y="481.0" type="curve" smooth="yes"/>
      <point x="538.3260987520347" y="481.0"/>
      <point x="558.3260987520347" y="481.0"/>
      <point x="577.3260987520347" y="481.0" type="curve"/>
      <point x="583.3260987520347" y="481.0" type="line"/>
      <point x="587.1351058057514" y="494.0"/>
      <point x="590.1823114487249" y="507.0"/>
      <point x="593.2295170916983" y="520.0" type="curve"/>
      <point x="595.5149213239283" y="527.0"/>
      <point x="592.2767227346717" y="531.0"/>
      <point x="585.2767227346717" y="531.0" type="curve" smooth="yes"/>
      <point x="536.2767227346717" y="531.0" type="line" smooth="yes"/>
      <point x="442.8969072164948" y="531.0"/>
      <point x="373.32609875203474" y="496.42919153553987"/>
      <point x="296.8990775908844" y="416.0965816603364" type="curve" smooth="yes"/>
      <point x="274.09007053716766" y="391.81117742810636"/>
      <point x="263.99565925122084" y="362.049376017363"/>
    </contour>
  </outline>
</glyph>
<glyph name="three.replaced_with_nokinks" format="1">
  <advance width="600"/>
  <outline>
    <contour>
      <point x="290" y="673" type="curve" smooth="yes"/>
      <point x="402.0" y="673.0"/>
      <point x="465.0" y="617.0"/>
      <point x="465.0" y="542" type="curve" smooth="yes"/>
      <point x="465.0" y="519"/>
      <point x="465.0" y="493"/>
      <point x="465" y="471" type="curve"/>
      <point x="493.0" y="471.0"/>
      <point x="514" y="500"/>
      <point x="514" y="533" type="curve" smooth="yes"/>
      <point x="514" y="556" type="line" smooth="yes"/>
      <point x="514" y="637.0"/>
      <point x="438" y="720.0"/>
      <point x="290" y="720" type="curve" smooth="yes"/>
      <point x="198" y="720.0"/>
      <point x="126" y="691"/>
      <point x="90" y="655" type="curve" smooth="yes"/>
      <point x="88" y="653"/>
      <point x="87" y="651"/>
      <point x="87" y="647" type="curve" smooth="yes"/>
      <point x="87.0" y="626"/>
      <point x="87.0" y="611"/>
      <point x="87" y="603" type="curve"/>
      <point x="98" y="603" type="line"/>
      <point x="157.0" y="653.0"/>
      <point x="207.0" y="673.0"/>
    </contour>
    <contour>
      <point x="184" y="340" type="curve" smooth="yes"/>
      <point x="395.0" y="340.0"/>
      <point x="514.0" y="419.0983606557377"/>
      <point x="514" y="533" type="curve" smooth="yes"/>
      <point x="514.0" y="565.2388059701492"/>
      <point x="492.0" y="593.0"/>
      <point x="461" y="593" type="curve"/>
      <point x="461.0" y="567.8196721311475"/>
      <point x="461.0" y="547.8852459016393"/>
      <point x="461.0" y="529" type="curve" smooth="yes"/>
      <point x="461.0" y="443"/>
      <point x="368.0" y="379.0"/>
      <point x="173" y="379" type="curve"/>
      <point x="173.0" y="370"/>
      <point x="173" y="360"/>
      <point x="173" y="351" type="curve" smooth="yes"/>
      <point x="173.0" y="345.0"/>
      <point x="177.0" y="340.0"/>
    </contour>
    <contour>
      <point x="184" y="332.0" type="curve" smooth="yes"/>
      <point x="355.0" y="332.0"/>
      <point x="470.0" y="285.11538461538464"/>
      <point x="470.0" y="173.0" type="curve" smooth="yes"/>
      <point x="470.0" y="152.01639344262296"/>
      <point x="470.0" y="132.08196721311475"/>
      <point x="470" y="109" type="curve"/>
      <point x="494.0" y="109.0"/>
      <point x="524.0" y="143.52307692307693"/>
      <point x="524" y="177" type="curve" smooth="yes"/>
      <point x="524.0" y="290.0"/>
      <point x="419.0" y="371.0"/>
      <point x="173" y="371" type="curve"/>
      <point x="173.0" y="362.8709677419355"/>
      <point x="173.0" y="353.83870967741933"/>
      <point x="173" y="343" type="curve" smooth="yes"/>
      <point x="173.0" y="336.0"/>
      <point x="177.0" y="332.0"/>
    </contour>
    <contour>
      <point x="280" y="27" type="curve" smooth="yes"/>
      <point x="197.0" y="27.0"/>
      <point x="148" y="47"/>
      <point x="88" y="100" type="curve"/>
      <point x="77" y="100" type="line"/>
      <point x="77.0" y="90.6"/>
      <point x="77.0" y="75.56"/>
      <point x="77" y="53" type="curve" smooth="yes"/>
      <point x="77" y="49"/>
      <point x="78" y="47"/>
      <point x="80" y="45" type="curve" smooth="yes"/>
      <point x="116.12978934348408" y="8.87021065651593"/>
      <point x="187.61904761904762" y="-20.0"/>
      <point x="280" y="-20" type="curve" smooth="yes"/>
      <point x="440.5811965811966" y="-20.0"/>
      <point x="524" y="68.0"/>
      <point x="524" y="154" type="curve" smooth="yes"/>
      <point x="524" y="177" type="line" smooth="yes"/>
      <point x="524" y="205.52830188679246"/>
      <point x="496.0" y="240.0"/>
      <point x="474" y="240" type="curve"/>
      <point x="474.0" y="211.59420289855075"/>
      <point x="474.0" y="188.80597014925374"/>
      <point x="474.0" y="170.0" type="curve" smooth="yes"/>
      <point x="474.0" y="89.0"/>
      <point x="404" y="27.0"/>
    </contour>
  </outline>
</glyph>
